<svg width="93.807" height="88.292" viewBox="0 0 93.807 88.292" xmlns="http://www.w3.org/2000/svg" xmlns:xlink="http://www.w3.org/1999/xlink" id="Test" overflow="hidden"><defs><clipPath id="clip-path"><rect x="0" y="0" width="93.807" height="88.292" id="Rectangle_10" stroke="#707070" stroke-width="4.5" fill="none"/></clipPath></defs><g id="Group_12" clip-path="url(#clip-path)"><path d="M28.17 7.5 70.97 7.5 70.97 89.247 7.5 89.247 7.5 28.17" id="Path_48" stroke="#000000" stroke-width="2.2381" stroke-linecap="round" stroke-linejoin="round" fill="none" transform="translate(-4.228 -4.228)"/><path d="M7.5 28.172 28.169 28.172 28.169 7.506Z" id="Path_49" stroke="#000000" stroke-width="2.2381" stroke-linecap="round" stroke-linejoin="round" fill="none" transform="translate(-4.229 -4.231)"/><path d="M190.416 103.095 183.804 113.012 177.193 103.095 177.193 56.275C177.238 52.6236 180.234 49.6999 183.886 49.7448 187.474 49.7889 190.372 52.6869 190.416 56.275Z" id="Path_50" stroke="#000000" stroke-width="2.2381" stroke-linecap="round" stroke-linejoin="round" fill="none" transform="translate(-99.882 -27.995)"/><line x1="0" y1="0" x2="13.223" y2="0" id="Line_19" stroke="#000000" stroke-width="2.2381" stroke-linecap="round" stroke-linejoin="round" fill="none" transform="translate(77.311 34.669)"/><line x1="0" y1="0" x2="36.303" y2="0" id="Line_20" stroke="#000000" stroke-width="2.2381" stroke-linecap="round" stroke-linejoin="round" fill="none" transform="translate(16.856 44.145)"/><line x1="16.125" y1="0" x2="0" y2="0" id="Line_21" stroke="#000000" stroke-width="2.2381" stroke-linecap="round" stroke-linejoin="round" fill="none" transform="translate(37.031 23.709)"/><line x1="0" y1="0" x2="36.303" y2="0" id="Line_22" stroke="#000000" stroke-width="2.2381" stroke-linecap="round" stroke-linejoin="round" fill="none" transform="translate(16.856 64.581)"/></g></svg>