<svg width="129.783" height="131.556" viewBox="0 0 129.783 131.556" xmlns="http://www.w3.org/2000/svg" xmlns:xlink="http://www.w3.org/1999/xlink" id="Develop" overflow="hidden"><defs><clipPath id="clip-path"><rect x="0" y="0" width="129.783" height="131.556" id="Rectangle_11" stroke="#707070" stroke-width="5" fill="none"/></clipPath></defs><g id="Group_13" clip-path="url(#clip-path)"><path d="M46.355 7.5 48.96 13.41C50.8268 17.6432 55.2206 20.1796 59.82 19.679L66.241 18.979 72.564 29.931 68.749 35.142C66.0165 38.8754 66.0165 43.9486 68.749 47.682L72.564 52.893 66.241 63.847 59.82 63.147C55.2206 62.6464 50.8268 65.1828 48.96 69.416L46.355 75.326 33.709 75.326 31.1 69.418C29.2336 65.1849 24.8401 62.6486 20.241 63.149L13.82 63.849 7.5 52.895 11.315 47.684C14.0482 43.9508 14.0482 38.8772 11.315 35.144L7.5 29.933 13.823 18.981 20.244 19.681C24.8426 20.1797 29.2346 17.6427 31.1 13.41L33.709 7.5Z" id="Path_51" stroke="#000000" stroke-width="3.33333" stroke-linecap="round" stroke-linejoin="round" fill="none" transform="translate(-2.911 -2.911)"/><path d="M64.86 55.652C64.8595 61.9845 59.7255 67.1176 53.393 67.117 47.0605 67.1164 41.9274 61.9825 41.928 55.65 41.9286 49.3183 47.0613 44.1856 53.393 44.185 59.7261 44.185 64.86 49.3189 64.86 55.652Z" id="Path_52" stroke="#000000" stroke-width="3.33333" stroke-linecap="round" stroke-linejoin="round" fill="none" transform="translate(-16.272 -17.149)"/><path d="M128.191 94.761 131.732 100.161C134.269 104.03 139.019 105.81 143.474 104.561L149.693 102.817 157.73 112.582 154.824 118.349C152.742 122.48 153.575 127.484 156.884 130.718L161.503 135.231 157.066 147.073 150.618 147.44C145.999 147.703 142.082 150.927 140.936 155.409L139.336 161.667 126.861 163.744 123.32 158.344C120.783 154.475 116.033 152.695 111.578 153.944L105.359 155.688 97.322 145.924 100.228 140.156C102.31 136.025 101.477 131.02 98.168 127.787L93.549 123.273 97.986 111.431 104.434 111.064C109.053 110.802 112.971 107.578 114.116 103.095L115.716 96.838Z" id="Path_53" stroke="#000000" stroke-width="3.33333" stroke-linecap="round" stroke-linejoin="round" fill="none" transform="translate(-36.308 -36.778)"/><path d="M153.113 141.972C154.154 148.219 149.933 154.127 143.686 155.167 137.439 156.208 131.531 151.987 130.491 145.74 129.45 139.493 133.671 133.586 139.918 132.545 139.918 132.545 139.918 132.545 139.918 132.545 146.165 131.505 152.072 135.725 153.113 141.972Z" id="Path_54" stroke="#000000" stroke-width="3.33333" stroke-linecap="round" stroke-linejoin="round" fill="none" transform="translate(-50.584 -51.381)"/></g></svg>