<svg viewBox="0 0 590.666 164" xmlns="http://www.w3.org/2000/svg" xmlns:xlink="http://www.w3.org/1999/xlink" overflow="hidden"><path d="M155.234 102.004 168.559 102.004C173.758 102.004 175.735 103.798 175.735 108.192 175.735 112.423 173.757 114.215 168.559 114.215L155.234 114.215 155.234 102.004 155.234 102.004ZM134.591 146.447 155.235 146.447 155.235 128.375 177.347 128.375C191.987 128.375 197.258 119.751 197.258 108.601 197.258 95.658 191.838 88.334 177.198 88.334L134.591 88.334 134.591 146.447 134.591 146.447Z" stroke-width="0.99972" fill="none" clip-rule="evenodd"/><path d="M204.066 88.334 259.627 88.334 259.627 102.493 224.71 102.493 224.71 110.307 257.142 110.307 257.142 124.472 224.71 124.472 224.71 132.285 259.627 132.285 259.627 146.447 204.066 146.447 204.066 88.334Z" stroke-width="0.99972" fill="none" clip-rule="evenodd"/><path d="M288.912 102.004 302.236 102.004C307.434 102.004 309.412 103.798 309.412 108.192 309.412 112.423 307.434 114.215 302.236 114.215L288.912 114.215 288.912 102.004 288.912 102.004ZM268.268 146.447 288.912 146.447 288.912 128.375 311.02 128.375C325.664 128.375 330.936 119.751 330.936 108.601 330.936 95.658 325.516 88.334 310.873 88.334L268.268 88.334 268.268 146.447 268.268 146.447Z" stroke-width="0.99972" fill="none" clip-rule="evenodd"/><path d="M350.918 121.785C340.817 120.073 336.647 113.562 336.647 105.425 336.647 90.365 349.898 86.299 366.878 86.299 390.155 86.299 399.747 93.052 400.48 105.344L376.467 105.344C376.467 102.983 375.222 101.515 373.322 100.702 371.491 99.809 369.15 99.484 366.878 99.484 360.729 99.484 358.608 101.191 358.608 103.635 358.608 105.26 359.264 106.322 361.314 106.646L385.984 110.714C396.381 112.423 402.824 117.795 402.824 127.641 402.824 141.808 392.428 148.482 369.22 148.482 353.335 148.482 335.984 146.041 335.912 128.948L360.802 128.948C360.872 130.899 361.534 132.201 363 133.097 364.533 133.912 366.804 134.32 370.024 134.32 376.465 134.32 378.225 132.365 378.225 129.597 378.225 127.888 377.271 126.18 374.495 125.694L350.918 121.785 350.918 121.785Z" stroke-width="0.99972" fill="none" clip-rule="evenodd"/><path d="M409.556 88.334 430.199 88.334 430.199 146.447 409.556 146.447 409.556 88.334Z" stroke-width="0.99972" fill="none" clip-rule="evenodd"/><path d="M506.706 123.82C505.388 131.471 503.042 137.657 497.917 141.888 492.869 146.121 484.96 148.482 472.371 148.482 459.853 148.482 436.646 147.503 436.646 117.392 436.646 87.275 459.853 86.298 472.371 86.298 484.813 86.298 503.995 88.087 506.706 111.124L483.426 111.124C482.84 106.969 480.347 100.947 472.371 100.947 463.948 100.947 458.605 105.586 458.605 117.391 458.605 129.193 463.804 133.829 471.344 133.829 477.861 133.829 481.741 130.818 483.425 123.819L506.706 123.819 506.706 123.82Z" stroke-width="0.99972" fill="none" clip-rule="evenodd"/><path d="M533.717 117.393C533.717 105.587 539.063 100.949 547.483 100.949 555.9 100.949 561.247 105.588 561.247 117.393 561.247 129.195 555.9 133.831 547.483 133.831 539.063 133.83 533.717 129.194 533.717 117.393L533.717 117.393ZM511.753 117.393C511.753 147.503 534.96 148.483 547.482 148.483 560.001 148.483 583.208 147.504 583.208 117.393 583.208 87.276 560.001 86.299 547.482 86.299 534.96 86.299 511.753 87.275 511.753 117.393L511.753 117.393Z" stroke-width="0.99972" fill="none" clip-rule="evenodd"/><path d="M103.397 88.91C104.73 61.029 80.686 29.631 47.907 25.75L47.963 25.369C80.278 25.369 105.051 55.285 105.051 78.886 105.02 83.799 104.632 86.843 103.94 89.053L103.397 88.91 103.397 88.91ZM101.439 92.454C99.289 95.081 96.585 97.726 93.417 100.237 87.589 66.718 62.958 37.408 45.544 28.853L45.171 29.113C62.684 43.486 83.572 71.401 91.695 101.552 87.809 104.416 83.317 107.052 78.354 109.192 61.828 90.346 46.421 54 41.456 30.936L40.951 31.088C41.063 53.476 56.958 91.482 76.342 110.027 72.04 111.724 67.414 113.047 62.556 113.836 43.975 106.475 30.749 82.899 30.749 58.748 30.749 42.982 35.556 33.229 36.486 31.233L36.09 31.076C34.965 32.778 27.923 42.526 27.923 59.547 27.923 86.846 41.386 107.712 59.26 114.283 53.145 114.948 46.71 114.747 40.108 113.384L39.975 113.8C41.887 114.504 48.374 117.227 58.27 117.227 80.653 117.227 95.784 103.32 101.875 92.749L101.439 92.454 101.439 92.454Z" stroke-width="0.99972" fill="none" clip-rule="evenodd"/><path d="M56.032 15.518C39.064 15.518 19.168 27.764 19.168 38.958 19.168 43.288 23.129 46.946 31.327 46.946 50.358 46.946 68.039 33.871 68.039 23.704 68.039 18.354 62.901 15.518 56.032 15.518L56.032 15.518ZM62.806 23.388C62.806 31.958 46.349 42.434 32.592 42.434 26.514 42.434 23.23 40.042 23.23 36.095 23.23 27.402 39.874 17.104 52.778 17.104 61.191 17.104 62.806 21.385 62.806 23.388L62.806 23.388Z" stroke-width="0.99972" fill="none" clip-rule="evenodd"/><path d="M12.408 44.141C11.931 44.966 10.021 48.706 10.021 52.538 10.021 59.645 17.202 66.243 30.41 66.243 55.819 66.243 85.175 47.54 85.175 30.179 85.175 22.386 77.798 18.149 72.676 17.273L72.58 17.577C74.173 18.081 80.009 20.794 80.009 27.736 80.009 41.569 54.09 60.417 28.272 60.417 18.388 60.417 12.161 55.538 12.161 48.431 12.161 46.183 12.629 44.702 12.753 44.273L12.408 44.141 12.408 44.141Z" stroke-width="0.99972" fill="none" clip-rule="evenodd"/><path d="M95.651 31.477C96.348 32.006 100.533 35.494 100.533 42.09 100.533 64.58 65.295 86.695 34.142 86.695 15.564 86.695 7.095 77.522 7.47 69.377L7.803 69.377C8.531 73.607 14.563 81.176 30.823 81.176 62.015 81.176 96.842 58.293 96.842 38.244 96.842 34.805 95.908 32.662 95.38 31.709L95.651 31.477 95.651 31.477Z" stroke-width="0.99972" fill="none" clip-rule="evenodd"/><path d="M107.429 52.473C107.575 52.952 108.334 55.105 108.334 58.477 108.334 83.495 72.673 104.913 41.658 104.913 25.695 104.913 17.359 97.159 15.599 94.01L15.883 93.8C20.3 97.663 29 100.598 39.153 100.598 66.545 100.598 107.418 79.758 107.053 52.564L107.429 52.473 107.429 52.473Z" stroke-width="0.99972" fill="none" clip-rule="evenodd"/></svg>