<svg viewBox="0 0 567.81 106.04" xmlns="http://www.w3.org/2000/svg" xmlns:xlink="http://www.w3.org/1999/xlink" id="Layer_1" overflow="hidden"><defs/><path d="M161.14 162 150.41 138.45 101.63 138.45 90.9 162 77 162 126 56 175.05 162ZM145.14 127.16 126 85.36 107 127.16Z" fill="#807F83" transform="translate(-76.97 -55.96)"/><path d="M231.22 57.77C249.34 57.77 263.22 68.5 263.22 89.4 263.22 110.3 249.29 120.89 231.22 120.89L203.22 120.89 203.22 162 190.39 162 190.39 57.77ZM203.07 109.6 229.69 109.6C240.84 109.6 250.17 103.06 250.17 89.4 250.17 75.46 240.84 69.05 229.69 69.05L203.07 69.05Z" fill="#807F83" transform="translate(-76.97 -55.96)"/><path d="M245.24 13.1 245.24 106.05 232.42 106.05 232.42 13.1 193.68 13.1 193.68 1.81 283.98 1.81 283.98 13.1 245.24 13.1Z" fill="#807F83"/><path d="M500.84 120.2 473.67 120.2 473.67 162 460.85 162 460.85 57.77 501.12 57.77C519.12 57.77 533.12 68.22 533.12 88.98 533.12 104.31 525.46 114.06 514.03 118.11L538.6 162 524.25 162ZM499.59 108.91C510.59 108.91 520.07 102.64 520.07 88.98 520.07 75.32 510.6 69.05 499.59 69.05L473.53 69.05 473.53 108.91Z" fill="#807F83" transform="translate(-76.97 -55.96)"/><path d="M630.85 162 620.12 138.45 571.34 138.45 560.62 162 546.68 162 595.73 56 644.73 162ZM614.85 127.16 595.76 85.36 576.76 127.16Z" fill="#807F83" transform="translate(-76.97 -55.96)"/><path d="M319.39 29.4 354.65 106.05 368.44 106.05 319.39 0 270.33 106.05 284.12 106.05 319.39 29.4Z" fill="#333333"/><path d="M161.14 162 150.41 138.45 101.63 138.45 90.9 162 77 162 126 56 175.05 162ZM145.14 127.16 126 85.36 107 127.16Z" fill="#807F83" transform="translate(-76.97 -55.96)"/><path d="M231.22 57.77C249.34 57.77 263.22 68.5 263.22 89.4 263.22 110.3 249.29 120.89 231.22 120.89L203.22 120.89 203.22 162 190.39 162 190.39 57.77ZM203.07 109.6 229.69 109.6C240.84 109.6 250.17 103.06 250.17 89.4 250.17 75.46 240.84 69.05 229.69 69.05L203.07 69.05Z" fill="#807F83" transform="translate(-76.97 -55.96)"/><path d="M245.24 13.1 245.24 106.05 232.42 106.05 232.42 13.1 193.68 13.1 193.68 1.81 283.98 1.81 283.98 13.1 245.24 13.1Z" fill="#807F83"/><path d="M500.84 120.2 473.67 120.2 473.67 162 460.85 162 460.85 57.77 501.12 57.77C519.12 57.77 533.12 68.22 533.12 88.98 533.12 104.31 525.46 114.06 514.03 118.11L538.6 162 524.25 162ZM499.59 108.91C510.59 108.91 520.07 102.64 520.07 88.98 520.07 75.32 510.6 69.05 499.59 69.05L473.53 69.05 473.53 108.91Z" fill="#807F83" transform="translate(-76.97 -55.96)"/><path d="M630.85 162 620.12 138.45 571.34 138.45 560.62 162 546.68 162 595.73 56 644.73 162ZM614.85 127.16 595.76 85.36 576.76 127.16Z" fill="#807F83" transform="translate(-76.97 -55.96)"/><path d="M319.39 29.4 354.65 106.05 368.44 106.05 319.39 0 270.33 106.05 284.12 106.05 319.39 29.4Z" fill="#005984"/></svg>