<svg width="81.615" height="92.969" viewBox="0 0 81.615 92.969" xmlns="http://www.w3.org/2000/svg" xmlns:xlink="http://www.w3.org/1999/xlink" id="Research" overflow="hidden"><defs><clipPath id="clip-path"><rect x="0" y="0" width="81.615" height="92.969" id="Rectangle_12" stroke="#707070" stroke-width="5" fill="none"/></clipPath></defs><g id="Group_14" clip-path="url(#clip-path)"><path d="M43.593 93.983 99.836 93.983C101.645 93.9847 103.113 92.5193 103.115 90.71 103.115 90.708 103.115 90.706 103.115 90.704L103.115 29.786 80.829 7.5 43.593 7.5" id="Path_55" stroke="#000000" stroke-width="2.60317" stroke-linecap="round" stroke-linejoin="round" fill="none" transform="translate(-24.743 -4.257)"/><path d="M151.994 29.792 129.713 29.792 129.713 7.511" id="Path_56" stroke="#000000" stroke-width="2.60317" stroke-linecap="round" stroke-linejoin="round" fill="none" transform="translate(-73.623 -4.263)"/><circle cx="13.773" cy="13.773" r="13.773" id="Ellipse_1" stroke="#000000" stroke-width="2.60317" stroke-linecap="round" stroke-linejoin="round" fill="none" transform="translate(3.243 15.992)"/><path d="M32.779 145.513 32.779 145.513C30.0132 145.514 27.7705 143.272 27.77 140.506 27.77 140.504 27.77 140.502 27.77 140.5L27.77 127.316C27.8091 124.55 30.0832 122.339 32.8493 122.378 35.5603 122.417 37.7487 124.605 37.787 127.316L37.787 140.5C37.7892 143.266 35.5484 145.511 32.782 145.513 32.781 145.513 32.78 145.513 32.779 145.513Z" id="Path_57" stroke="#000000" stroke-width="2.60317" stroke-linecap="round" stroke-linejoin="round" fill="none" transform="translate(-15.762 -69.419)"/><line x1="0" y1="9.349" x2="0" y2="0" id="Line_23" stroke="#000000" stroke-width="2.60317" stroke-linecap="round" stroke-linejoin="round" fill="none" transform="translate(17.017 43.538)"/><line x1="24.876" y1="0" x2="0" y2="0" id="Line_24" stroke="#000000" stroke-width="2.60317" stroke-linecap="round" stroke-linejoin="round" fill="none" transform="translate(41.452 41.581)"/><line x1="30.618" y1="0" x2="0" y2="0" id="Line_25" stroke="#000000" stroke-width="2.60317" stroke-linecap="round" stroke-linejoin="round" fill="none" transform="translate(35.71 57.628)"/><line x1="30.828" y1="0" x2="0" y2="0" id="Line_26" stroke="#000000" stroke-width="2.60317" stroke-linecap="round" stroke-linejoin="round" fill="none" transform="translate(35.5 73.676)"/></g></svg>