<svg width="93.504" height="112.067" viewBox="0 0 93.504 112.067" xmlns="http://www.w3.org/2000/svg" xmlns:xlink="http://www.w3.org/1999/xlink" id="Create" overflow="hidden"><defs><clipPath id="clip-path"><rect x="0" y="0" width="93.504" height="112.067" id="Rectangle_9" stroke="#707070" stroke-width="5" fill="none"/></clipPath></defs><g id="Group_11" clip-path="url(#clip-path)"><path d="M91.758 67.439C91.7564 53.454 80.418 42.1183 66.4331 42.1199 65.4724 42.12 64.5125 42.1748 63.558 42.284 52.1478 43.4822 43.0146 52.2873 41.4 63.646 40.2695 71.1147 42.5353 78.6979 47.578 84.322 52.6482 89.8504 55.4954 97.0581 55.572 104.559L55.572 105.776 77.309 105.776 77.309 104.738C77.2728 97.291 80.0381 90.1027 85.056 84.6 89.3742 79.9295 91.7681 73.7998 91.758 67.439Z" id="Path_46" stroke="#000000" stroke-width="2.2381" stroke-linecap="round" stroke-linejoin="round" fill="none" transform="translate(-19.691 -20.168)"/><line x1="0" y1="0" x2="18.125" y2="0" id="Line_11" stroke="#000000" stroke-width="2.2381" stroke-linecap="round" stroke-linejoin="round" fill="none" transform="translate(37.69 96.405)"/><line x1="0" y1="0" x2="9.041" y2="0" id="Line_12" stroke="#000000" stroke-width="2.2381" stroke-linecap="round" stroke-linejoin="round" fill="none" transform="translate(42.231 108.157)"/><line x1="0" y1="6.116" x2="0" y2="0" id="Line_13" stroke="#000000" stroke-width="2.2381" stroke-linecap="round" stroke-linejoin="round" fill="none" transform="translate(46.752 3.909)"/><line x1="4.325" y1="4.325" x2="0" y2="0" id="Line_14" stroke="#000000" stroke-width="2.2381" stroke-linecap="round" stroke-linejoin="round" fill="none" transform="translate(16.458 16.458)"/><line x1="6.116" y1="0" x2="0" y2="0" id="Line_15" stroke="#000000" stroke-width="2.2381" stroke-linecap="round" stroke-linejoin="round" fill="none" transform="translate(3.909 46.752)"/><line x1="0" y1="0" x2="6.116" y2="0" id="Line_16" stroke="#000000" stroke-width="2.2381" stroke-linecap="round" stroke-linejoin="round" fill="none" transform="translate(83.479 46.752)"/><line x1="0" y1="4.325" x2="4.325" y2="0" id="Line_17" stroke="#000000" stroke-width="2.2381" stroke-linecap="round" stroke-linejoin="round" fill="none" transform="translate(72.722 16.458)"/><line x1="0" y1="28.423" x2="0" y2="0" id="Line_18" stroke="#000000" stroke-width="2.2381" stroke-linecap="round" stroke-linejoin="round" fill="none" transform="translate(46.752 57.186)"/><path d="M90.195 102.093 87.76 104.528C85.7121 106.576 82.3919 106.576 80.344 104.528L77.909 102.093" id="Path_47" stroke="#000000" stroke-width="2.2381" stroke-linecap="round" stroke-linejoin="round" fill="none" transform="translate(-37.3 -48.878)"/></g></svg>