<svg width="148" height="38" xmlns="http://www.w3.org/2000/svg" xmlns:xlink="http://www.w3.org/1999/xlink" fill="none" overflow="hidden"><g id="EB Logo Color"><g id="Group"><path d="M145.643 4.28674 145.643 4.46539 144.954 4.46539 144.954 6.74891 144.768 6.74891 144.768 4.46539 144.055 4.46539 144.055 4.28674 145.643 4.28674ZM147.805 6.74891 147.805 5.76249C147.805 5.09452 147.828 4.78384 147.844 4.45762L147.828 4.45762C147.642 5.02462 147.263 6.04211 146.999 6.74115L146.813 6.74115C146.573 6.01104 146.271 5.09452 146.077 4.45762L146.062 4.45762C146.077 4.65956 146.085 5.11006 146.085 5.76249L146.085 6.75668 145.907 6.75668 145.907 4.28674 146.186 4.28674C146.426 4.99355 146.751 5.99551 146.914 6.50037L146.93 6.50037C147.116 5.9489 147.472 5.01685 147.735 4.28674L147.999 4.28674 147.999 6.74891 147.805 6.74891Z" id="Vector" fill="#001166"/></g><g id="Group_2"><path d="M28.884 36.4307C28.1866 36.4307 27.6519 36.1356 27.3032 35.5841L27.3265 37.9298C27.3265 37.9686 27.2955 37.9997 27.2567 37.9997L26.4818 37.9997C26.4431 37.9997 26.4121 37.9686 26.4121 37.9298L26.4431 34.1317 26.4121 31.3433C26.4121 31.3044 26.4431 31.2734 26.4818 31.2734L27.249 31.2734C27.2877 31.2734 27.3187 31.3044 27.3187 31.3433L27.2955 32.0812C27.6364 31.5219 28.1866 31.1802 28.8995 31.1802 30.2633 31.1802 30.984 32.3219 30.984 33.7899 30.9917 35.2501 30.2168 36.4307 28.884 36.4307ZM28.6593 35.7705C29.6279 35.7705 30.0928 34.9861 30.0928 33.8521 30.0928 32.6404 29.6434 31.8326 28.6825 31.8326 27.8224 31.8326 27.28 32.4928 27.2722 33.7589 27.2645 35.0327 27.7682 35.7705 28.6593 35.7705Z" id="Vector_2" fill="#001166"/><path d="M34.1855 36.4451C32.659 36.4451 31.7988 35.4043 31.7988 33.8121 31.7988 32.212 32.659 31.1479 34.1855 31.1479 35.7198 31.1479 36.5721 32.1965 36.5721 33.7888 36.5799 35.3888 35.7275 36.4451 34.1855 36.4451ZM34.1855 35.7849C35.1773 35.7849 35.6578 35.0781 35.6578 33.8121 35.6578 32.546 35.1696 31.8082 34.1855 31.8082 33.1859 31.8159 32.6977 32.546 32.6977 33.8121 32.6977 35.0781 33.1936 35.7849 34.1855 35.7849Z" id="Vector_3" fill="#001166"/><path d="M41.5445 36.3247C41.5057 36.3247 41.467 36.2936 41.4592 36.2548L40.3821 32.014 39.429 36.2548C39.4213 36.2936 39.3825 36.3247 39.3438 36.3247L38.4527 36.3247C38.4139 36.3247 38.3752 36.2936 38.3674 36.2548L37.0579 31.3382C37.0501 31.2994 37.0811 31.2683 37.1043 31.2683L37.8715 31.2683C37.9102 31.2683 37.949 31.2994 37.9567 31.3382L38.9253 35.5635 39.9017 31.3382C39.9094 31.2994 39.9482 31.2683 39.9869 31.2683L40.9168 31.2683C40.9555 31.2683 40.9943 31.2994 41.002 31.3382L42.0017 35.5014 42.9548 31.3382C42.9625 31.2994 43.0013 31.2683 43.04 31.2683L43.7219 31.2683C43.7607 31.2683 43.7839 31.2994 43.7684 31.3382L42.5363 36.2548C42.5286 36.2936 42.4898 36.3247 42.4511 36.3247L41.5445 36.3247Z" id="Vector_4" fill="#001166"/><path d="M48.8121 34.5704C48.8509 34.5704 48.8819 34.6014 48.8741 34.6403 48.7269 35.6811 47.9598 36.45 46.658 36.45 45.0927 36.45 44.248 35.3626 44.248 33.8169 44.248 32.2325 45.1469 31.1528 46.6115 31.1528 48.0838 31.1528 48.9439 32.1626 48.9594 33.8558 48.9594 33.8946 48.9284 33.9257 48.8896 33.9257L45.1392 33.9257C45.1702 35.1451 45.6816 35.7898 46.6657 35.7898 47.4173 35.7898 47.859 35.3859 48.0063 34.6403 48.014 34.6014 48.045 34.5704 48.0838 34.5704L48.8121 34.5704ZM46.6115 31.7975C45.7823 31.7975 45.2864 32.3412 45.1624 33.2888L47.9908 33.2888C47.9675 32.4888 47.5026 31.7975 46.6115 31.7975Z" id="Vector_5" fill="#001166"/><path d="M49.9545 36.3291C49.9158 36.3291 49.8848 36.2981 49.8848 36.2592L49.9158 33.7427 49.8848 31.3349C49.8848 31.2961 49.9158 31.265 49.9545 31.265L50.7061 31.265C50.7449 31.265 50.7759 31.2961 50.7759 31.3349L50.7449 32.197C51.1013 31.5601 51.7523 31.2184 52.4574 31.2184 52.5659 31.2184 52.6744 31.2262 52.7596 31.2495 52.7983 31.2572 52.8293 31.2961 52.8293 31.3349L52.8293 31.9252C52.8293 31.9563 52.7983 31.9873 52.7596 31.9718 52.6821 31.964 52.5814 31.9485 52.4651 31.9485 51.605 31.9485 50.8611 32.4767 50.7604 33.6107L50.7836 36.2515C50.7836 36.2903 50.7526 36.3214 50.7139 36.3214L49.9545 36.3214 49.9545 36.3291Z" id="Vector_6" fill="#001166"/><path d="M57.6774 34.5704C57.7161 34.5704 57.7471 34.6014 57.7394 34.6403 57.5921 35.6811 56.825 36.45 55.5232 36.45 53.9579 36.45 53.1133 35.3626 53.1133 33.8169 53.1133 32.2325 54.0122 31.1528 55.4767 31.1528 56.949 31.1528 57.8091 32.1626 57.8246 33.8558 57.8246 33.8946 57.7936 33.9257 57.7549 33.9257L54.0044 33.9257C54.0354 35.1451 54.5468 35.7898 55.5309 35.7898 56.2826 35.7898 56.7243 35.3859 56.8715 34.6403 56.8792 34.6014 56.9102 34.5704 56.949 34.5704L57.6774 34.5704ZM55.4844 31.7975C54.6553 31.7975 54.1594 32.3412 54.0354 33.2888L56.8637 33.2888C56.8327 32.4888 56.3756 31.7975 55.4844 31.7975Z" id="Vector_7" fill="#001166"/><path d="M62.3463 36.3244C62.3076 36.3244 62.2766 36.2934 62.2766 36.2545L62.2998 35.5244C61.9666 36.0837 61.4164 36.4177 60.6958 36.4177 59.332 36.4177 58.6113 35.2759 58.6113 33.8079 58.6113 32.3477 59.3862 31.1671 60.719 31.1671 61.4164 31.1671 61.9511 31.4622 62.2998 32.0137L62.2921 29.5205C62.2921 29.4816 62.3231 29.4506 62.3618 29.4506L63.1289 29.4506C63.1677 29.4506 63.1987 29.4816 63.1987 29.5205L63.1754 32.5186 63.1987 36.2623C63.1987 36.3011 63.1677 36.3322 63.1289 36.3322L62.3463 36.3322 62.3463 36.3244ZM60.9128 35.773C61.7729 35.773 62.3153 35.1283 62.3231 33.839 62.3308 32.5652 61.8271 31.8195 60.9282 31.804 59.9596 31.7962 59.5102 32.5962 59.5102 33.738 59.5102 34.9574 59.9674 35.773 60.9128 35.773Z" id="Vector_8" fill="#001166"/><path d="M68.8567 36.4254C68.1438 36.4254 67.6013 36.1225 67.2681 35.5633L67.2914 36.2623C67.2914 36.3011 67.2604 36.3322 67.2216 36.3322L66.4545 36.3322C66.4158 36.3322 66.3848 36.3011 66.3848 36.2623L66.4158 32.5574 66.3925 29.5205C66.3925 29.4816 66.4235 29.4506 66.4623 29.4506L67.2294 29.4506C67.2681 29.4506 67.2991 29.4816 67.2991 29.5205L67.2914 32.0448C67.6323 31.4933 68.1748 31.1671 68.8877 31.1671 70.2515 31.1671 70.9721 32.3089 70.9721 33.7768 70.9644 35.2448 70.1895 36.4254 68.8567 36.4254ZM68.6319 35.7574C69.6006 35.7652 70.05 34.973 70.05 33.839 70.05 32.6428 69.6006 31.8273 68.6474 31.8351 67.7873 31.8351 67.2449 32.472 67.2371 33.738 67.2371 35.0196 67.7408 35.7574 68.6319 35.7574Z" id="Vector_9" fill="#001166"/><path d="M73.5824 37.9266C73.5747 37.9655 73.5359 37.9965 73.4972 37.9965L72.7843 37.9965C72.7533 37.9965 72.7223 37.9655 72.7378 37.9266L73.288 36.3344 71.312 31.3324C71.2888 31.2935 71.312 31.2625 71.3508 31.2625L72.2264 31.2625C72.2651 31.2625 72.3039 31.2935 72.3116 31.3324L73.7529 35.1615 74.9695 31.3324C74.9772 31.2935 75.016 31.2625 75.0547 31.2625L75.8374 31.2625C75.8761 31.2625 75.8994 31.2935 75.8839 31.3324L73.5824 37.9266Z" id="Vector_10" fill="#001166"/><path d="M81.3743 36.3244 78.7397 36.3244C78.7009 36.3244 78.6699 36.2934 78.6699 36.2545L78.7009 32.7904 78.6699 29.5205C78.6699 29.4816 78.7009 29.4506 78.7397 29.4506L81.3588 29.4506C82.7381 29.4506 83.7067 30.0098 83.7067 31.0972 83.7067 31.9593 83.2573 32.4331 82.4204 32.6506 83.451 32.8759 83.8927 33.4817 83.9082 34.2817 83.9159 35.7419 82.7381 36.3244 81.3743 36.3244ZM79.5688 32.3477 81.351 32.3477C82.2344 32.3477 82.7846 32.037 82.7846 31.2681 82.7846 30.4991 82.1957 30.1496 81.351 30.1496L79.5998 30.1496 79.5688 32.3477ZM79.5998 35.6176 81.351 35.6176C82.3119 35.6176 82.9783 35.2759 82.9783 34.2895 82.9783 33.3885 82.2112 33.039 81.351 33.039L79.5688 33.039 79.5998 35.6176Z" id="Vector_11" fill="#001166"/><path d="M85.0072 36.3264C84.9685 36.3264 84.9375 36.2953 84.9375 36.2565L84.9685 32.8467 84.9375 29.5146C84.9375 29.4758 84.9685 29.4447 85.0072 29.4447L85.7589 29.4447C85.7976 29.4447 85.8286 29.4758 85.8286 29.5146L85.7976 32.8312 85.8286 36.2487C85.8286 36.2875 85.7976 36.3186 85.7589 36.3186L85.0072 36.3186 85.0072 36.3264Z" id="Vector_12" fill="#001166"/><path d="M88.6423 36.4412C87.6039 36.4412 86.9453 35.7577 86.9453 34.4295L86.9453 33.4276 86.9375 31.3382C86.9375 31.2994 86.9685 31.2683 87.0072 31.2683L87.7744 31.2683C87.8131 31.2683 87.8441 31.2994 87.8441 31.3382L87.8209 33.4276 87.8209 34.3985C87.8209 35.315 88.2626 35.7266 88.8902 35.7266 89.5566 35.7266 90.0836 35.1985 90.285 34.1965L90.285 33.4276 90.2773 31.3382C90.2773 31.2994 90.3083 31.2683 90.347 31.2683L91.1219 31.2683C91.1606 31.2683 91.1916 31.2994 91.1916 31.3382L91.1684 33.5751 91.1762 36.2548C91.1762 36.2936 91.1452 36.3247 91.1064 36.3247L90.3703 36.3247C90.3315 36.3247 90.3005 36.2936 90.3005 36.2548L90.3315 35.4625C90.0138 35.9829 89.4481 36.4412 88.6423 36.4412Z" id="Vector_13" fill="#001166"/><path d="M96.6832 34.5704C96.722 34.5704 96.753 34.6014 96.7452 34.6403 96.598 35.6811 95.8309 36.45 94.529 36.45 92.9638 36.45 92.1191 35.3626 92.1191 33.8169 92.1191 32.2325 93.018 31.1528 94.4826 31.1528 95.9548 31.1528 96.815 32.1626 96.8305 33.8558 96.8305 33.8946 96.7995 33.9257 96.7607 33.9257L93.0103 33.9257C93.0413 35.1451 93.5527 35.7898 94.5368 35.7898 95.2884 35.7898 95.7301 35.3859 95.8774 34.6403 95.8851 34.6014 95.9161 34.5704 95.9548 34.5704L96.6832 34.5704ZM94.4903 31.7975C93.6612 31.7975 93.1652 32.3412 93.0413 33.2888L95.8696 33.2888C95.8386 32.4888 95.3814 31.7975 94.4903 31.7975Z" id="Vector_14" fill="#001166"/><path d="M99.9747 36.4451C98.4637 36.4451 97.6113 35.4043 97.6113 33.8121 97.6113 32.2198 98.4637 31.1479 99.9902 31.1479 101.246 31.1479 102.02 31.8781 102.113 32.9422 102.121 32.981 102.09 33.0121 102.051 33.0121L101.354 33.0121C101.315 33.0121 101.284 32.981 101.277 32.9422 101.16 32.2043 100.68 31.8159 99.9825 31.8159 98.9829 31.8159 98.5102 32.546 98.5102 33.7965 98.5102 35.0859 98.9829 35.7694 99.9825 35.7771 100.765 35.7771 101.253 35.3033 101.323 34.48 101.331 34.4412 101.362 34.4101 101.401 34.4101L102.106 34.4101C102.144 34.4101 102.175 34.4412 102.175 34.48 102.09 35.6218 101.277 36.4451 99.9747 36.4451Z" id="Vector_15" fill="#001166"/><path d="M103.138 36.3291C103.099 36.3291 103.068 36.2981 103.068 36.2592L103.099 33.7427 103.068 31.3349C103.068 31.2961 103.099 31.265 103.138 31.265L103.89 31.265C103.928 31.265 103.959 31.2961 103.959 31.3349L103.928 32.197C104.285 31.5601 104.936 31.2184 105.641 31.2184 105.749 31.2184 105.858 31.2262 105.943 31.2495 105.982 31.2572 106.013 31.2961 106.013 31.3349L106.013 31.9252C106.013 31.9563 105.982 31.9873 105.943 31.9718 105.866 31.964 105.765 31.9485 105.649 31.9485 104.789 31.9485 104.045 32.4767 103.944 33.6107L103.967 36.2515C103.967 36.2903 103.936 36.3214 103.897 36.3214L103.138 36.3214 103.138 36.3291Z" id="Vector_16" fill="#001166"/><path d="M110.873 34.5704C110.911 34.5704 110.942 34.6014 110.935 34.6403 110.787 35.6811 110.02 36.45 108.719 36.45 107.153 36.45 106.309 35.3626 106.309 33.8169 106.309 32.2325 107.207 31.1528 108.672 31.1528 110.144 31.1528 111.004 32.1626 111.02 33.8558 111.02 33.8946 110.989 33.9257 110.95 33.9257L107.2 33.9257C107.231 35.1451 107.742 35.7898 108.726 35.7898 109.478 35.7898 109.92 35.3859 110.067 34.6403 110.075 34.6014 110.106 34.5704 110.144 34.5704L110.873 34.5704ZM108.672 31.7975C107.843 31.7975 107.347 32.3412 107.223 33.2888L110.051 33.2888C110.028 32.4888 109.571 31.7975 108.672 31.7975Z" id="Vector_17" fill="#001166"/><path d="M115.972 36.3247C115.933 36.3247 115.895 36.2936 115.887 36.2548L114.81 32.014 113.857 36.2548C113.849 36.2936 113.81 36.3247 113.772 36.3247L112.88 36.3247C112.842 36.3247 112.803 36.2936 112.795 36.2548L111.486 31.3382C111.478 31.2994 111.509 31.2683 111.532 31.2683L112.299 31.2683C112.338 31.2683 112.377 31.2994 112.384 31.3382L113.353 35.5635 114.329 31.3382C114.337 31.2994 114.376 31.2683 114.415 31.2683L115.345 31.2683C115.383 31.2683 115.422 31.2994 115.43 31.3382L116.429 35.5014 117.382 31.3382C117.39 31.2994 117.429 31.2683 117.468 31.2683L118.157 31.2683C118.196 31.2683 118.219 31.2994 118.204 31.3382L116.972 36.2548C116.964 36.2936 116.925 36.3247 116.887 36.3247L115.972 36.3247Z" id="Vector_18" fill="#001166"/></g><g id="Group_3"><path d="M12.3207 13.346C12.4137 13.346 12.53 13.4392 12.499 13.5558 12.1503 16.0801 9.98057 18.1461 6.48582 18.1461 2.26268 18.1461 0 15.3189 0 11.3266 0 7.33431 2.40216 4.44495 6.36184 4.44495 10.3215 4.44495 12.7004 7.17897 12.7857 11.6761 12.7857 11.7693 12.6927 11.8858 12.5765 11.8858L3.04531 11.8858C3.16155 14.682 4.30838 16.0024 6.50907 16.0024 8.08984 16.0024 9.15144 15.2101 9.50014 13.5946 9.53114 13.4781 9.64737 13.3849 9.76361 13.3849L12.313 13.3849 12.313 13.346 12.3207 13.346ZM6.38509 6.54983C4.5641 6.54983 3.487 7.66053 3.1228 9.78871L9.4614 9.78871C9.38391 8.07995 8.4153 6.54983 6.38509 6.54983Z" id="Vector_19" fill="#001166"/><path d="M16.8848 12.9294 16.9778 17.6052C16.9778 17.6984 16.8848 17.8149 16.7686 17.8149L14.01 17.8149C13.917 17.8149 13.8008 17.7217 13.8008 17.6052L13.8938 12.9294 13.8628 4.9293C13.8628 4.83609 13.9558 4.71959 14.072 4.71959L16.6214 4.71959C16.7144 4.71959 16.8306 4.81279 16.8306 4.9293L16.7376 6.6303C17.59 5.30989 18.8221 4.42444 20.6353 4.42444 22.4563 4.42444 23.7736 5.24775 24.3858 7.01088 25.4164 5.12348 26.7337 4.42444 28.4074 4.42444 30.9878 4.42444 32.5144 6.00893 32.5144 9.56626L32.5144 12.945 32.6074 17.6207C32.6074 17.714 32.5144 17.8305 32.3981 17.8305L29.6705 17.8305C29.5775 17.8305 29.4613 17.7373 29.4613 17.6207L29.5233 12.945 29.5233 9.6284C29.5233 7.65555 28.7019 6.80117 27.4156 6.80117 26.2455 6.80117 25.0987 8.03614 24.719 10.242L24.719 12.945 24.812 17.5897C24.812 17.6829 24.719 17.7994 24.6027 17.7994L21.8751 17.7994C21.7821 17.7994 21.6659 17.7062 21.6659 17.5897L21.7589 12.9139 21.7589 9.62063C21.7589 7.64779 20.9375 6.79341 19.6512 6.79341 18.3649 6.79341 17.1328 8.20702 16.8926 10.8245L16.8848 12.9294Z" id="Vector_20" fill="#001166"/><path d="M47.8225 17.8139C47.7295 17.8139 47.6133 17.7207 47.6133 17.6042L47.7063 8.87395 47.6133 0.236933C47.6133 0.143728 47.7063 0.0272217 47.8225 0.0272217L50.4649 0.0272217C50.5579 0.0272217 50.6741 0.120427 50.6741 0.236933L50.5811 8.88172 50.6741 17.6119C50.6741 17.7051 50.5811 17.8217 50.4649 17.8217L47.8225 17.8139Z" id="Vector_21" fill="#001166"/><path d="M58.2886 18.108C54.1507 18.108 51.8027 15.4284 51.8027 11.2885 51.8027 7.14865 54.1507 4.40686 58.2886 4.40686 62.4265 4.40686 64.7124 7.08651 64.7124 11.2264 64.6814 15.374 62.3955 18.108 58.2886 18.108ZM58.2886 15.9643C60.4892 15.9643 61.5741 14.4342 61.5741 11.3196 61.5741 8.20497 60.466 6.58942 58.2653 6.58942 56.0026 6.62048 54.9565 8.23604 54.9565 11.3506 54.91 14.4342 56.0646 15.9643 58.2886 15.9643Z" id="Vector_22" fill="#001166"/><path d="M84.1966 18.0818C82.4686 18.0818 81.1125 17.4294 80.2369 16.14L80.3299 17.6158C80.3299 17.709 80.2369 17.8255 80.1207 17.8255L77.4241 17.8255C77.3311 17.8255 77.2148 17.7323 77.2148 17.6158L77.3078 8.52828 77.2148 0.209712C77.2148 0.116507 77.3078 0 77.4241 0L80.1207 0C80.2137 0 80.3299 0.0932052 80.3299 0.209712L80.2989 6.41563C81.2055 5.18066 82.5306 4.44278 84.2586 4.44278 87.9006 4.44278 89.7991 7.37875 89.7991 11.2079 89.7758 15.0526 87.7146 18.0818 84.1966 18.0818ZM83.3752 15.8449C85.6069 15.907 86.6607 14.1439 86.6607 11.371 86.6607 8.40401 85.5682 6.64087 83.4295 6.67194 81.376 6.67194 80.1672 8.17876 80.1439 11.1147 80.1517 14.1672 81.3218 15.8449 83.3752 15.8449Z" id="Vector_23" fill="#001166"/><path d="M91.0276 17.8127C90.9346 17.8127 90.8184 17.7195 90.8184 17.603L90.9114 11.1952 90.8184 4.92711C90.8184 4.8339 90.9114 4.7174 91.0276 4.7174L93.67 4.7174C93.7629 4.7174 93.8792 4.8106 93.8792 4.92711L93.7862 7.01646C94.7548 5.43197 96.4828 4.63196 98.3348 4.63196 98.5983 4.63196 98.8075 4.66303 99.0089 4.69409 99.1019 4.72516 99.2182 4.84167 99.2182 4.95818L99.2182 6.93102C99.2182 7.02423 99.1252 7.10966 99.0089 7.10966 98.8307 7.0786 98.5983 7.0786 98.389 7.0786 95.9249 7.0786 93.9567 8.49221 93.8404 11.4903L93.8714 17.6341C93.8714 17.7273 93.7784 17.8438 93.6622 17.8438L91.0276 17.8127Z" id="Vector_24" fill="#001166"/><path d="M100.655 3.05664C100.562 3.05664 100.445 2.96343 100.445 2.84692L100.445 0.237178C100.445 0.143972 100.538 0.0274658 100.655 0.0274658L103.351 0.0274658C103.444 0.0274658 103.56 0.120671 103.56 0.237178L103.56 2.85469C103.56 2.9479 103.467 3.0644 103.351 3.0644 103.359 3.05664 100.655 3.05664 100.655 3.05664ZM100.655 17.8141C100.562 17.8141 100.445 17.7209 100.445 17.6044L100.507 11.1655 100.445 4.89744C100.445 4.80423 100.538 4.68773 100.655 4.68773L103.382 4.68773C103.475 4.68773 103.591 4.78093 103.591 4.89744L103.498 11.1655 103.591 17.6044C103.591 17.6976 103.498 17.8141 103.382 17.8141L100.655 17.8141Z" id="Vector_25" fill="#001166"/><path d="M114.372 17.8112C114.279 17.8112 114.163 17.718 114.163 17.6015L114.255 16.017C113.372 17.3142 111.993 18.0753 110.234 18.0753 106.592 18.0753 104.693 15.1394 104.693 11.3102 104.693 7.481 106.778 4.4596 110.265 4.4596 111.962 4.4596 113.287 5.11203 114.163 6.347L114.139 0.24206C114.139 0.148855 114.232 0.0323486 114.348 0.0323486L117.045 0.0323486C117.138 0.0323486 117.254 0.125554 117.254 0.24206L117.223 8.50626 117.285 17.6171C117.285 17.7103 117.192 17.8268 117.076 17.8268L114.372 17.8112ZM111.063 15.9316C113.116 15.9316 114.325 14.4015 114.348 11.3723 114.379 8.31208 113.209 6.61108 111.148 6.58002 108.917 6.51788 107.839 8.28101 107.839 11.1082 107.801 14.1685 108.924 15.9316 111.063 15.9316Z" id="Vector_26" fill="#001166"/><path d="M124.679 22.8449C121.416 22.9071 118.96 21.5478 118.758 18.674 118.758 18.5808 118.851 18.4643 118.968 18.4643L121.579 18.4643C121.672 18.4643 121.788 18.5575 121.811 18.674 121.99 20.0255 123.075 20.7012 124.772 20.7012 126.678 20.7012 127.972 19.6371 127.972 17.1749L127.972 15.6681C127.119 16.9652 125.802 17.7264 124.074 17.7264 120.293 17.7264 118.355 14.8992 118.355 11.202 118.355 7.50491 120.44 4.52234 123.958 4.52234 125.686 4.52234 127.011 5.17478 127.856 6.40975L127.794 4.934C127.794 4.84079 127.887 4.72428 128.003 4.72428L130.676 4.72428C130.769 4.72428 130.885 4.81749 130.885 4.934L130.792 10.8215 130.823 17.2604C130.808 20.7245 128.692 22.8449 124.679 22.8449ZM124.702 15.6371C126.693 15.6371 127.871 14.2235 127.902 11.3186 127.933 8.35152 126.794 6.7049 124.702 6.67383 122.532 6.61169 121.416 8.28938 121.416 11.0855 121.416 14.0526 122.532 15.6681 124.702 15.6371Z" id="Vector_27" fill="#001166"/><path d="M144.186 13.346C144.279 13.346 144.395 13.4392 144.364 13.5558 144.015 16.0801 141.846 18.1461 138.351 18.1461 134.128 18.1461 131.865 15.3189 131.865 11.3266 131.865 7.33431 134.267 4.44495 138.227 4.44495 142.187 4.44495 144.566 7.17897 144.651 11.6761 144.651 11.7693 144.558 11.8858 144.442 11.8858L134.911 11.8858C135.027 14.682 136.174 16.0024 138.374 16.0024 139.955 16.0024 141.017 15.2101 141.365 13.5946 141.396 13.4781 141.513 13.3849 141.629 13.3849L144.178 13.3849 144.178 13.346 144.186 13.346ZM138.289 6.54983C136.468 6.54983 135.391 7.66053 135.027 9.78871L141.365 9.78871C141.257 8.07995 140.281 6.54983 138.289 6.54983Z" id="Vector_28" fill="#001166"/><path d="M135.704 25.8972C90.8148 21.602 45.4915 21.8351 0.671875 26.7827L0.671875 28.2274C4.04264 27.9944 10.7067 27.4973 13.6048 27.3186 54.209 24.67 94.9837 24.7943 135.557 27.6138 135.557 27.6138 142.918 28.1419 143.98 28.2351L143.98 26.7516C141.601 26.4875 137.696 26.0837 135.704 25.8972Z" id="Vector_29" fill="#9933EB"/><path d="M69.0482 17.8941 68.1648 21.133C69.1954 21.133 70.2183 21.133 71.2489 21.133L76.4406 4.93078C76.5026 4.83758 76.4096 4.72107 76.3244 4.72107L73.5968 4.72107C73.4805 4.72107 73.3643 4.81427 73.3333 4.93078L70.5747 13.9562 67.2892 4.93078C67.2272 4.81427 67.1419 4.72107 66.9947 4.72107L63.9726 4.72107C63.8797 4.72107 63.8254 4.81427 63.8564 4.89971L69.0482 17.8941Z" id="Vector_30" fill="#001166"/><path d="M33.923 22.2512C34.9536 22.1891 35.9455 22.1347 36.9761 22.0726L36.9451 16.2162C37.8284 17.4511 39.1458 18.0725 40.8428 18.0725 44.3375 18.0725 46.4142 15.0123 46.4142 11.2219 46.4142 7.43159 44.5002 4.45679 40.8738 4.45679 39.1148 4.45679 37.7897 5.21796 36.8521 6.484L36.9451 4.89951C36.9451 4.80631 36.8521 4.6898 36.7359 4.6898L34.0315 4.6898C33.9385 4.6898 33.8223 4.78301 33.8223 4.89951L33.9153 12.3093 33.9153 22.2512 33.923 22.2512ZM40.1066 6.67041C42.2763 6.67041 43.3689 8.43354 43.3689 11.4006 43.3689 14.1967 42.2763 15.8744 40.0601 15.8744 38.0067 15.8744 36.8288 14.1734 36.8598 11.1443 36.8521 8.19276 38.0532 6.67041 40.1066 6.67041Z" id="Vector_31" fill="#001166"/></g></g></svg>