<svg width="131.475" height="83.105" viewBox="0 0 131.475 83.105" xmlns="http://www.w3.org/2000/svg" xmlns:xlink="http://www.w3.org/1999/xlink" id="Empathize" overflow="hidden"><defs><clipPath id="clip-path"><rect x="0" y="0" width="131.475" height="83.105" id="Rectangle_4" stroke="#707070" stroke-width="5" fill="none"/></clipPath></defs><g id="Group_2" clip-path="url(#clip-path)"><path d="M34.428 86.633 39.458 86.633C41.576 86.6328 43.5327 87.7642 44.589 89.6L56.357 110.068C57.1058 111.368 58.4919 112.169 59.992 112.168L65.992 112.168" id="Path_41" stroke="#000000" stroke-width="2.32889" stroke-linecap="round" stroke-linejoin="round" fill="none" transform="translate(-13.375 -33.656)"/><path d="M84.346 104.97 92.746 116.391C93.7455 117.75 95.5963 118.161 97.077 117.352L99.377 116.095" id="Path_42" stroke="#000000" stroke-width="2.32889" stroke-linecap="round" stroke-linejoin="round" fill="none" transform="translate(-32.767 -40.78)"/><path d="M102.974 91.29 113.18 108.883C114.112 110.494 116.173 111.045 117.785 110.113 117.801 110.103 117.818 110.093 117.835 110.083L121.396 107.936" id="Path_43" stroke="#000000" stroke-width="2.32889" stroke-linecap="round" stroke-linejoin="round" fill="none" transform="translate(-40.004 -35.465)"/><path d="M100.857 51.717 110.7 66.74C113.308 70.7214 118.65 71.8346 122.631 69.2264 123.462 68.6823 124.192 67.9988 124.79 67.206 125.605 66.1251 125.693 64.661 125.014 63.49L106.814 32.113C105.215 29.3572 102.318 27.61 99.135 27.481L96.2 27.362C94.3488 27.2855 92.5552 28.015 91.283 29.362L83.2 37.936C79.7231 41.6233 73.9226 41.8149 70.21 38.365 68.3293 36.6176 68.1364 33.7073 69.77 31.727L83.35 15.261C86.4344 11.5237 91.0273 9.35983 95.873 9.361L112.323 9.361C114.679 9.36085 117.009 9.85624 119.162 10.815L137.077 18.794" id="Path_44" stroke="#000000" stroke-width="2.32889" stroke-linecap="round" stroke-linejoin="round" fill="none" transform="translate(-26.674 -3.635)"/><line x1="12.082" y1="0" x2="0" y2="0" id="Line_1" stroke="#000000" stroke-width="2.32889" stroke-linecap="round" stroke-linejoin="round" fill="none" transform="translate(98.321 59.83)"/><line x1="25.215" y1="0" x2="0" y2="0" id="Line_2" stroke="#000000" stroke-width="2.32889" stroke-linecap="round" stroke-linejoin="round" fill="none" transform="translate(21.053 9.192)"/><rect x="0" y="0" rx="5.214" width="16.485" height="58.785" id="Rectangle_2" stroke="#000000" stroke-width="2.32889" stroke-linecap="round" stroke-linejoin="round" fill="none" transform="translate(110.403 7.319)"/><rect x="0" y="0" rx="5.214" width="16.467" height="53.381" id="Rectangle_3" stroke="#000000" stroke-width="2.32889" stroke-linecap="round" stroke-linejoin="round" fill="none" transform="translate(4.586 4.586)"/></g></svg>