<svg width="150" height="139" xmlns="http://www.w3.org/2000/svg" xmlns:xlink="http://www.w3.org/1999/xlink" overflow="hidden"><path d="M75.01 132.31C73.83 132.31 72.71 131.95 71.77 131.27L68.15 128.62 33.72 128.62 30.54 103.3 7.61 86.61C6.96 82.87 6.63 79 6.63 75.07 6.63 37.36 37.3 6.7 75.01 6.7 112.71 6.7 143.38 37.37 143.38 75.07 143.38 78.92 143.05 82.8 142.4 86.62L119.48 103.31 116.29 128.63 81.87 128.63 78.23 131.31C77.34 131.95 76.18 132.31 75.01 132.31Z" fill="#FFCD00"/><path d="M68.47 135.84C70.39 137.23 72.67 137.94 75 137.94 77.33 137.94 79.63 137.22 81.54 135.84L83.71 134.26 121.24 134.26 124.75 106.42 147.51 89.85C148.5 85 149 80.04 149 75.06 149 34.2 115.85 1.06 75 1.06 34.15 1.06 1 34.2 1 75.06 1 80.04 1.48 85 2.5 89.85L25.26 106.42 28.75 134.26 66.31 134.26 68.47 135.84ZM67.49 121.31 40.18 121.31 37.44 99.25 14.94 82.9C14.28 80.33 13.94 77.72 13.94 75.06 13.94 70.64 14.87 66.27 16.69 62.24L56.5 102.47 17.8 54.72C19.32 48.52 22.69 42.93 27.47 38.7L62.17 98.56 31.41 33.03C35.38 27.72 40.92 23.83 47.26 21.88L68.47 96.21 52.97 18.81C57.71 16.14 62.99 14.75 68.42 14.75 69.57 14.75 70.71 14.8 71.84 14.92L75 95.42 78.15 14.93C79.3 14.81 80.43 14.76 81.6 14.76 86.99 14.76 92.32 16.15 97.04 18.82L81.54 96.22 102.77 21.89C109.08 23.84 114.62 27.74 118.6 33.04L87.86 98.56 122.56 38.7C127.31 42.93 130.69 48.52 132.23 54.72L93.53 102.48 133.34 62.25C135.14 66.28 136.05 70.65 136.05 75.07 136.05 77.73 135.73 80.34 135.05 82.91L112.59 99.26 109.83 121.32 82.52 121.32 78.5 124.25C77.47 124.98 76.25 125.41 75 125.41 73.75 125.41 72.53 124.99 71.52 124.25L67.49 121.31Z" fill="#DA291C"/></svg>