<svg width="1666.52" height="781.792" viewBox="0 0 1666.52 781.792" xmlns="http://www.w3.org/2000/svg" xmlns:xlink="http://www.w3.org/1999/xlink" overflow="hidden"><g id="Group_1" transform="translate(-127 -149)"><path d="M927.647 1039.28C924.112 1039.28 921.247 1042.14 921.247 1045.68 921.247 1049.21 924.112 1052.08 927.647 1052.08 931.182 1052.08 934.047 1049.21 934.047 1045.68 934.047 1042.14 931.182 1039.28 927.647 1039.28" id="Path_1" fill="#F7D916" transform="translate(-453.73 -506.133)"/><path d="M3890.12 613.27C3878.16 613.265 3868.46 622.955 3868.46 634.913 3868.45 645.451 3876.04 654.461 3886.42 656.257L3886.42 1072.01C3886.37 1113.38 3852.84 1146.91 3811.47 1146.96L3644.12 1146.96C3602.75 1146.91 3569.22 1113.38 3569.17 1072.01L3569.17 795.03C3569.17 793.135 3567.74 791.547 3565.85 791.352 3565.73 791.341 3565.61 791.333 3565.48 791.333 3563.43 791.333 3561.78 792.99 3561.78 795.033L3561.78 1072.01C3561.78 1117.49 3598.64 1154.35 3644.12 1154.35L3811.47 1154.35C3856.95 1154.35 3893.81 1117.49 3893.81 1072.01L3893.81 656.261C3905.6 654.222 3913.5 643.016 3911.46 631.232 3909.66 620.852 3900.65 613.27 3890.12 613.27M3891.81 649.087C3890.75 648.535 3889.48 648.535 3888.42 649.087 3880.6 648.152 3875.02 641.053 3875.95 633.231 3876.89 625.409 3883.99 619.826 3891.81 620.761 3899.63 621.696 3905.21 628.795 3904.28 636.617 3903.5 643.153 3898.34 648.306 3891.81 649.087" id="Path_10" fill="#46B2E1" transform="translate(-2118.25 -237.59)"/><path d="M3015.51 391.723 3015.51 118.392C3015.51 72.9153 2978.65 36.05 2933.17 36.05L2765.82 36.05C2720.35 36.0494 2683.48 72.9151 2683.48 118.392L2683.48 395.308C2683.48 397.351 2685.14 399.008 2687.18 399.008L2687.19 399.008C2689.23 399 2690.88 397.346 2690.88 395.308L2690.88 118.392C2690.92 77.0171 2724.45 43.4887 2765.83 43.443L2933.17 43.443C2974.54 43.4887 3008.07 77.0171 3008.12 118.392L3008.12 392.252C2996.52 395.131 2989.44 406.876 2992.32 418.484 2994.71 428.143 3003.39 434.926 3013.34 434.925 3014.07 434.925 3014.8 434.888 3015.51 434.818 3027.42 433.617 3036.09 422.996 3034.89 411.095 3033.85 400.855 3025.76 392.757 3015.51 391.723M3013.34 427.532C3012.95 427.532 3012.57 427.517 3012.2 427.488 3004.33 426.869 2998.46 419.993 2999.08 412.131 2999.7 404.268 3006.57 398.395 3014.44 399.014 3022.3 399.633 3028.17 406.509 3027.55 414.371 3026.97 421.793 3020.78 427.521 3013.34 427.532" id="Path_8" fill="#D53A2C" transform="translate(-1564.6 126.274)"/><path d="M2137.22 998.318C2134.77 997.892 2132.27 997.892 2129.82 998.318 2118.04 1000.36 2110.14 1011.57 2112.19 1023.35 2113.75 1032.36 2120.81 1039.42 2129.82 1040.98L2129.82 1314.53C2129.77 1355.9 2096.24 1389.43 2054.87 1389.48L1887.53 1389.48C1846.15 1389.43 1812.62 1355.9 1812.57 1314.53L1812.57 1037.62C1812.57 1035.58 1810.93 1033.93 1808.9 1033.92L1808.88 1033.92C1806.83 1033.92 1805.18 1035.57 1805.18 1037.62L1805.18 1314.53C1805.18 1360.01 1842.04 1396.88 1887.52 1396.88L2054.87 1396.88C2100.35 1396.88 2137.21 1360.01 2137.22 1314.53L2137.22 1040.99C2149 1038.96 2156.9 1027.76 2154.87 1015.97 2153.31 1006.95 2146.24 999.876 2137.22 998.318M2133.53 1033.92 2133.52 1033.92C2125.64 1033.92 2119.26 1027.53 2119.26 1019.65 2119.26 1011.78 2125.64 1005.39 2133.52 1005.39L2133.53 1005.39C2141.41 1005.39 2147.79 1011.78 2147.79 1019.65 2147.79 1027.53 2141.41 1033.92 2133.53 1033.92" id="Path_6" fill="#39E8E8" transform="translate(-1010.94 -480.114)"/><path d="M1258.92 391.93 1258.92 118.392C1258.91 72.9151 1222.05 36.0494 1176.57 36.05L1009.22 36.05C963.748 36.0494 926.881 72.9151 926.88 118.392L926.88 395.319C926.88 397.362 928.537 399.019 930.58 399.019 930.628 399.019 930.68 399.019 930.721 399.019 930.762 399.019 930.799 399.019 930.836 399.019 932.773 398.883 934.276 397.272 934.277 395.33L934.277 118.392C934.325 77.0171 967.855 43.4887 1009.23 43.443L1176.57 43.443C1217.94 43.4887 1251.47 77.0171 1251.52 118.392L1251.52 391.937C1239.74 393.992 1231.86 405.209 1233.91 416.991 1235.72 427.359 1244.72 434.926 1255.24 434.925 1256.47 434.926 1257.7 434.821 1258.91 434.611 1270.7 432.587 1278.61 421.391 1276.59 409.605 1275.04 400.564 1267.96 393.483 1258.91 391.93M1255.24 427.53 1255.22 427.53C1247.33 427.523 1240.95 421.125 1240.95 413.24 1240.96 405.355 1247.36 398.969 1255.24 398.976 1263.13 398.983 1269.52 405.381 1269.51 413.266 1269.5 421.141 1263.12 427.523 1255.24 427.53" id="Path_4" fill="#F7D916" transform="translate(-457.281 126.274)"/><path d="M349.992 753.807C348.974 753.658 347.946 753.584 346.917 753.585 334.956 753.589 325.262 763.289 325.266 775.25 325.269 785.542 332.515 794.41 342.6 796.465L342.6 1070.12C342.554 1111.49 309.025 1145.02 267.651 1145.07L100.3 1145.07C58.926 1145.02 25.3973 1111.49 25.351 1070.12L25.351 653.258C37.1301 651.216 45.0241 640.013 42.9825 628.233 40.941 616.454 29.7371 608.56 17.958 610.602 6.17885 612.643-1.71506 623.847 0.32646 635.626 1.88838 644.638 8.94604 651.696 17.958 653.258L17.958 1070.11C17.9574 1115.59 54.8231 1152.46 100.3 1152.46L267.65 1152.46C313.126 1152.46 349.991 1115.59 349.992 1070.12L349.992 796.676C361.83 794.978 370.05 784.004 368.351 772.166 366.986 762.649 359.509 755.172 349.992 753.807M7.393 631.926C7.393 624.048 13.7792 617.662 21.657 617.662 29.5348 617.662 35.921 624.048 35.921 631.926 35.921 639.804 29.5348 646.19 21.657 646.19 21.6567 646.19 21.6563 646.19 21.656 646.19 13.782 646.181 7.40127 639.8 7.393 631.926M346.917 789.506C339.039 789.508 332.651 783.123 332.65 775.245 332.648 767.552 338.747 761.244 346.436 760.986 346.477 760.986 346.514 760.986 346.551 760.986 346.673 760.986 346.795 760.986 346.917 760.986 354.795 760.986 361.181 767.372 361.181 775.25 361.181 783.128 354.795 789.514 346.917 789.514" id="Path_2" fill="#D1465E" transform="translate(127 -235.699)"/><path d="M1804.34 1039.28C1800.8 1039.28 1797.94 1042.14 1797.94 1045.68 1797.94 1049.21 1800.8 1052.08 1804.34 1052.08 1807.87 1052.08 1810.74 1049.21 1810.74 1045.68 1810.74 1042.14 1807.87 1039.28 1804.34 1039.28" id="Path_3" fill="#39E8E8" transform="translate(-1006.37 -506.133)"/><path d="M2682.59 1039.28C2679.06 1039.28 2676.19 1042.14 2676.19 1045.68 2676.19 1049.21 2679.06 1052.08 2682.59 1052.08 2686.13 1052.08 2688.99 1049.21 2688.99 1045.68 2688.99 1042.14 2686.13 1039.28 2682.59 1039.28" id="Path_5" fill="#D53A2C" transform="translate(-1560 -506.133)"/><path d="M3564.97 1039.28C3561.44 1039.28 3558.57 1042.14 3558.57 1045.68 3558.57 1049.21 3561.44 1052.08 3564.97 1052.08 3568.51 1052.08 3571.37 1049.21 3571.37 1045.68 3571.37 1042.14 3568.51 1039.28 3564.97 1039.28" id="Path_7" fill="#46B2E1" transform="translate(-2116.23 -506.133)"/><path d="M4439.16 654.542C4435.63 654.542 4432.76 657.407 4432.76 660.942 4432.76 664.477 4435.63 667.342 4439.16 667.342 4442.69 667.342 4445.56 664.477 4445.56 660.942 4445.56 657.407 4442.69 654.542 4439.16 654.542" id="Path_9" fill="#D53A2C" transform="translate(-2667.29 -263.607)"/><path d="M479.892 2061.2 476.565 2064.53 455.659 2064.53 458.986 2061.2 454.92 2057.13 475.826 2057.13Z" id="Path_11" fill="#D1465E" transform="translate(-159.77 -1147.76)"/><path d="M443.553 2021.17 433.1 2021.17 450.458 2038.53 433.1 2055.89 443.553 2055.89 460.911 2038.53Z" id="Path_12" fill="#D1465E" transform="translate(-146.015 -1125.09)"/><path d="M535.6 2061.2 532.273 2064.53 511.363 2064.53 514.69 2061.2 510.624 2057.13 531.534 2057.13Z" id="Path_13" fill="#D1465E" transform="translate(-194.881 -1147.76)"/><path d="M499.259 2021.17 488.806 2021.17 506.164 2038.53 488.806 2055.89 499.259 2055.89 516.617 2038.53Z" id="Path_14" fill="#D1465E" transform="translate(-181.13 -1125.09)"/><path d="M1357.4 40.083 1354.04 43.443 1333.13 43.443 1336.49 40.083 1332.46 36.05 1353.37 36.05Z" id="Path_15" fill="#F7D916" transform="translate(-712.947 126.274)"/><path d="M1321.01 0 1310.55 0 1327.91 17.36 1310.55 34.718 1321.01 34.718 1338.36 17.36Z" id="Path_16" fill="#F7D916" transform="translate(-699.137 148.998)"/><path d="M1413.11 40.083 1409.75 43.443 1388.84 43.443 1392.2 40.083 1388.17 36.05 1409.08 36.05Z" id="Path_17" fill="#F7D916" transform="translate(-748.066 126.274)"/><path d="M1376.71 0 1366.26 0 1383.62 17.358 1366.26 34.716 1376.71 34.716 1394.07 17.358Z" id="Path_18" fill="#F7D916" transform="translate(-734.253 148.998)"/><path d="M3114 40.083 3110.64 43.443 3089.73 43.443 3093.09 40.083 3089.06 36.05 3109.97 36.05Z" id="Path_19" fill="#D53A2C" transform="translate(-1820.26 126.274)"/><path d="M3077.6 0 3067.15 0 3084.51 17.36 3067.15 34.718 3077.6 34.718 3094.96 17.36Z" id="Path_20" fill="#D53A2C" transform="translate(-1806.45 148.998)"/><path d="M3169.71 40.083 3166.35 43.443 3145.44 43.443 3148.8 40.083 3144.77 36.05 3165.68 36.05Z" id="Path_21" fill="#D53A2C" transform="translate(-1855.38 126.274)"/><path d="M3133.31 0 3122.86 0 3140.22 17.358 3122.86 34.716 3133.31 34.716 3150.67 17.358Z" id="Path_22" fill="#D53A2C" transform="translate(-1841.57 148.998)"/><path d="M3992.24 2061.2 3988.92 2064.53 3968.01 2064.53 3971.34 2061.2 3967.27 2057.13 3988.18 2057.13Z" id="Path_23" fill="#46B2E1" transform="translate(-2373.86 -1147.76)"/><path d="M3955.91 2021.17 3945.45 2021.17 3962.81 2038.53 3945.45 2055.89 3955.91 2055.89 3973.26 2038.53Z" id="Path_24" fill="#46B2E1" transform="translate(-2360.11 -1125.09)"/><path d="M4047.95 2061.2 4044.62 2064.53 4023.72 2064.53 4027.04 2061.2 4022.98 2057.13 4043.89 2057.13Z" id="Path_25" fill="#46B2E1" transform="translate(-2408.98 -1147.76)"/><path d="M4011.61 2021.17 4001.16 2021.17 4018.51 2038.53 4001.16 2055.89 4011.61 2055.89 4028.97 2038.53Z" id="Path_26" fill="#46B2E1" transform="translate(-2395.22 -1125.09)"/><path d="M2235.64 2061.2 2232.31 2064.53 2211.41 2064.53 2214.74 2061.2 2210.67 2057.13 2231.57 2057.13Z" id="Path_29" fill="#39E8E8" transform="translate(-1266.55 -1147.76)"/><path d="M2291.35 2061.2 2288.02 2064.53 2267.12 2064.53 2270.45 2061.2 2266.38 2057.13 2287.28 2057.13Z" id="Path_30" fill="#39E8E8" transform="translate(-1301.67 -1147.76)"/><path d="M2199.3 2021.17 2188.85 2021.17 2206.21 2038.53 2188.85 2055.89 2199.3 2055.89 2216.66 2038.53Z" id="Path_31" fill="#39E8E8" transform="translate(-1252.79 -1125.09)"/><path d="M2255.01 2021.17 2244.56 2021.17 2261.92 2038.53 2244.56 2055.89 2255.01 2055.89 2272.37 2038.53Z" id="Path_32" fill="#39E8E8" transform="translate(-1287.91 -1125.09)"/><rect x="0" y="0" width="1666.52" height="781.792" id="Rectangle_1" fill="none" transform="translate(127 149)"/><path d="M499.259 2021.17 488.806 2021.17 506.164 2038.53 488.806 2055.89 499.259 2055.89 516.617 2038.53Z" id="Path_33" fill="#F7D916" transform="matrix(6.12323e-17 -1 1 6.12323e-17 -1564.61 875.146)"/><path d="M499.259 2021.17 488.806 2021.17 506.164 2038.53 488.806 2055.89 499.259 2055.89 516.617 2038.53Z" id="Path_40" fill="#D1465E" transform="matrix(6.12323e-17 -1 1 6.12323e-17 -1564.61 1215.15)"/><path d="M499.259 2021.17 488.806 2021.17 506.164 2038.53 488.806 2055.89 499.259 2055.89 516.617 2038.53Z" id="Path_36" fill="#D53A2C" transform="matrix(6.12323e-17 -1 1 6.12323e-17 -915.611 875.146)"/><path d="M499.259 2021.17 488.806 2021.17 506.164 2038.53 488.806 2055.89 499.259 2055.89 516.617 2038.53Z" id="Path_38" fill="#39E8E8" transform="matrix(6.12323e-17 -1 1 6.12323e-17 -915.611 1215.15)"/><path d="M10.453 34.715 0 34.715 17.358 17.358 0 0 10.453 0 27.811 17.358Z" id="Path_34" fill="#F7D916" transform="matrix(6.12323e-17 1 -1 6.12323e-17 815.275 358.529)"/><path d="M10.453 34.715 0 34.715 17.358 17.358 0 0 10.453 0 27.811 17.358Z" id="Path_39" fill="#39E8E8" transform="matrix(6.12323e-17 1 -1 6.12323e-17 815.275 698.529)"/><path d="M10.453 34.715 0 34.715 17.358 17.358 0 0 10.453 0 27.811 17.358Z" id="Path_35" fill="#D53A2C" transform="matrix(6.12323e-17 1 -1 6.12323e-17 1464.28 358.529)"/><path d="M10.453 34.715 0 34.715 17.358 17.358 0 0 10.453 0 27.811 17.358Z" id="Path_37" fill="#46B2E1" transform="matrix(6.12323e-17 1 -1 6.12323e-17 1464.28 698.529)"/></g></svg>