<svg viewBox="0 0 158.84 768" xmlns="http://www.w3.org/2000/svg" xmlns:xlink="http://www.w3.org/1999/xlink" id="Vector" overflow="hidden"><defs><pattern width="120" height="80" patternUnits="userSpaceOnUse" viewBox="0 0 120 80" id="ProEdge_Dot_Pattern" overflow="hidden" patternTransform="translate(-728.64 974.13)"><rect x="0" y="0" width="120" height="80" fill="none"/><line x1="120.02" y1="10" x2="120.02" y2="10" stroke="#EFEFEF" stroke-width="4.09" stroke-linecap="round" stroke-miterlimit="10" fill="none"/><line x1="120.02" y1="30" x2="120.02" y2="30" stroke="#EFEFEF" stroke-width="4.09" stroke-linecap="round" stroke-miterlimit="10" fill="none"/><line x1="120.02" y1="50" x2="120.02" y2="50" stroke="#EFEFEF" stroke-width="4.09" stroke-linecap="round" stroke-miterlimit="10" fill="none"/><line x1="120.02" y1="70" x2="120.02" y2="70" stroke="#EFEFEF" stroke-width="4.09" stroke-linecap="round" stroke-miterlimit="10" fill="none"/><line x1="79.98" y1="10" x2="79.98" y2="10" stroke="#EFEFEF" stroke-width="4.09" stroke-linecap="round" stroke-miterlimit="10" fill="none"/><line x1="119.98" y1="10" x2="119.98" y2="10" stroke="#EFEFEF" stroke-width="4.09" stroke-linecap="round" stroke-miterlimit="10" fill="none"/><line x1="39.98" y1="10" x2="39.98" y2="10" stroke="#EFEFEF" stroke-width="4.09" stroke-linecap="round" stroke-miterlimit="10" fill="none"/><line x1="59.98" y1="10" x2="59.98" y2="10" stroke="#EFEFEF" stroke-width="4.09" stroke-linecap="round" stroke-miterlimit="10" fill="none"/><line x1="99.98" y1="10" x2="99.98" y2="10" stroke="#EFEFEF" stroke-width="4.09" stroke-linecap="round" stroke-miterlimit="10" fill="none"/><line x1="20.02" y1="10" x2="20.02" y2="10" stroke="#EFEFEF" stroke-width="4.09" stroke-linecap="round" stroke-miterlimit="10" fill="none"/><line x1="0.02" y1="10" x2="0.02" y2="10" stroke="#EFEFEF" stroke-width="4.09" stroke-linecap="round" stroke-miterlimit="10" fill="none"/><line x1="79.98" y1="30" x2="79.98" y2="30" stroke="#EFEFEF" stroke-width="4.09" stroke-linecap="round" stroke-miterlimit="10" fill="none"/><line x1="119.98" y1="30" x2="119.98" y2="30" stroke="#EFEFEF" stroke-width="4.09" stroke-linecap="round" stroke-miterlimit="10" fill="none"/><line x1="39.98" y1="30" x2="39.98" y2="30" stroke="#EFEFEF" stroke-width="4.09" stroke-linecap="round" stroke-miterlimit="10" fill="none"/><line x1="0.02" y1="30" x2="0.02" y2="30" stroke="#EFEFEF" stroke-width="4.09" stroke-linecap="round" stroke-miterlimit="10" fill="none"/><line x1="79.98" y1="50" x2="79.98" y2="50" stroke="#EFEFEF" stroke-width="4.09" stroke-linecap="round" stroke-miterlimit="10" fill="none"/><line x1="119.98" y1="50" x2="119.98" y2="50" stroke="#EFEFEF" stroke-width="4.09" stroke-linecap="round" stroke-miterlimit="10" fill="none"/><line x1="39.98" y1="50" x2="39.98" y2="50" stroke="#EFEFEF" stroke-width="4.09" stroke-linecap="round" stroke-miterlimit="10" fill="none"/><line x1="0.02" y1="50" x2="0.02" y2="50" stroke="#EFEFEF" stroke-width="4.09" stroke-linecap="round" stroke-miterlimit="10" fill="none"/><line x1="79.98" y1="70" x2="79.98" y2="70" stroke="#EFEFEF" stroke-width="4.09" stroke-linecap="round" stroke-miterlimit="10" fill="none"/><line x1="119.98" y1="70" x2="119.98" y2="70" stroke="#EFEFEF" stroke-width="4.09" stroke-linecap="round" stroke-miterlimit="10" fill="none"/><line x1="39.98" y1="70" x2="39.98" y2="70" stroke="#EFEFEF" stroke-width="4.09" stroke-linecap="round" stroke-miterlimit="10" fill="none"/><line x1="0.02" y1="70" x2="0.02" y2="70" stroke="#EFEFEF" stroke-width="4.09" stroke-linecap="round" stroke-miterlimit="10" fill="none"/><line x1="59.98" y1="30" x2="59.98" y2="30" stroke="#EFEFEF" stroke-width="4.09" stroke-linecap="round" stroke-miterlimit="10" fill="none"/><line x1="99.98" y1="30" x2="99.98" y2="30" stroke="#EFEFEF" stroke-width="4.09" stroke-linecap="round" stroke-miterlimit="10" fill="none"/><line x1="20.02" y1="30" x2="20.02" y2="30" stroke="#EFEFEF" stroke-width="4.09" stroke-linecap="round" stroke-miterlimit="10" fill="none"/><line x1="59.98" y1="50" x2="59.98" y2="50" stroke="#EFEFEF" stroke-width="4.09" stroke-linecap="round" stroke-miterlimit="10" fill="none"/><line x1="99.98" y1="50" x2="99.98" y2="50" stroke="#EFEFEF" stroke-width="4.09" stroke-linecap="round" stroke-miterlimit="10" fill="none"/><line x1="20.02" y1="50" x2="20.02" y2="50" stroke="#EFEFEF" stroke-width="4.09" stroke-linecap="round" stroke-miterlimit="10" fill="none"/><line x1="59.98" y1="70" x2="59.98" y2="70" stroke="#EFEFEF" stroke-width="4.09" stroke-linecap="round" stroke-miterlimit="10" fill="none"/><line x1="99.98" y1="70" x2="99.98" y2="70" stroke="#EFEFEF" stroke-width="4.09" stroke-linecap="round" stroke-miterlimit="10" fill="none"/><line x1="20.02" y1="70" x2="20.02" y2="70" stroke="#EFEFEF" stroke-width="4.09" stroke-linecap="round" stroke-miterlimit="10" fill="none"/><line x1="-0.02" y1="10" x2="-0.02" y2="10" stroke="#EFEFEF" stroke-width="4.09" stroke-linecap="round" stroke-miterlimit="10" fill="none"/><line x1="-0.02" y1="30" x2="-0.02" y2="30" stroke="#EFEFEF" stroke-width="4.09" stroke-linecap="round" stroke-miterlimit="10" fill="none"/><line x1="-0.02" y1="50" x2="-0.02" y2="50" stroke="#EFEFEF" stroke-width="4.09" stroke-linecap="round" stroke-miterlimit="10" fill="none"/><line x1="-0.02" y1="70" x2="-0.02" y2="70" stroke="#EFEFEF" stroke-width="4.09" stroke-linecap="round" stroke-miterlimit="10" fill="none"/></pattern></defs><rect x="0" y="0" width="158.84" height="768" fill="url(#ProEdge_Dot_Pattern)"/></svg>