<svg width="132" height="39" xmlns="http://www.w3.org/2000/svg" xmlns:xlink="http://www.w3.org/1999/xlink" xml:space="preserve" overflow="hidden"><style>
.MsftOfcThm_Accent1_Fill_v2 {
 fill:#156082; 
}
</style>
<g transform="translate(38 -101)"><path d="M11.1564 12.4977 11.1206 5.9481 7.94375 11.2792 6.39106 11.2792 3.23128 6.12528 3.23128 12.4977 0 12.4977 0 0.141436 2.87691 0.141436 7.21947 7.27232 11.4563 0.141436 14.3333 0.141436 14.369 12.4977 11.1564 12.4977Z" class="MsftOfcThm_Accent1_Fill_v2" fill="#156082" transform="matrix(1.00776 0 0 1 -38 101.021)"/><path d="M23.281 8.06654 23.281 12.4977 19.7855 12.4977 19.7855 8.01369 15.0731 0.141436 18.7629 0.141436 21.6926 5.04819 24.6224 0.141436 28.0122 0.141436 23.281 8.06654Z" class="MsftOfcThm_Accent1_Fill_v2" fill="#156082" transform="matrix(1.00776 0 0 1 -38 101.021)"/><path d="M28.3292 6.31956C28.3292 2.66553 31.1176 0 34.8788 0 36.7859 0 38.4443 0.652783 39.5742 1.92416L38.4272 3.03544C37.4744 2.02984 36.3087 1.56979 34.9503 1.56979 32.162 1.56979 30.0964 3.58254 30.0964 6.31801 30.0964 9.05348 32.162 11.0662 34.9503 11.0662 36.3103 11.0662 37.4744 10.5891 38.4272 9.58348L39.5742 10.6963C38.4443 11.9677 36.7859 12.6376 34.8617 12.6376 31.1191 12.6376 28.3308 9.97204 28.3308 6.31801Z" class="MsftOfcThm_Accent1_Fill_v2" fill="#156082" transform="matrix(1.00776 0 0 1 -38 101.021)"/><path d="M40.6482 6.31956C40.6482 2.70128 43.4365 0 47.232 0 51.0274 0 53.7816 2.68263 53.7816 6.31956 53.7816 9.9565 50.9932 12.6391 47.232 12.6391 43.4707 12.6391 40.6482 9.93785 40.6482 6.31956ZM52.0159 6.31956C52.0159 3.58409 49.969 1.57134 47.232 1.57134 44.4949 1.57134 42.4123 3.58409 42.4123 6.31956 42.4123 9.05504 44.4592 11.0678 47.232 11.0678 50.0048 11.0678 52.0159 9.05504 52.0159 6.31956Z" class="MsftOfcThm_Accent1_Fill_v2" fill="#156082" transform="matrix(1.00776 0 0 1 -38 101.021)"/><path d="M67.7605 12.4977 67.7434 3.4955 63.278 10.9978 62.4667 10.9978 58.0013 3.54834 58.0013 12.4977 56.3072 12.4977 56.3072 0.141436 57.7542 0.141436 62.9081 8.82656 67.9905 0.141436 69.4375 0.141436 69.4546 12.4977 67.7605 12.4977Z" class="MsftOfcThm_Accent1_Fill_v2" fill="#156082" transform="matrix(1.00776 0 0 1 -38 101.021)"/><path d="M82.9579 4.44825C82.9579 7.13088 81.0166 8.75507 77.804 8.75507L74.7499 8.75507 74.7499 12.4977 72.9843 12.4977 72.9843 0.141436 77.804 0.141436C81.0166 0.141436 82.9579 1.76562 82.9579 4.44825ZM81.1922 4.44825C81.1922 2.68263 80.0095 1.67703 77.7496 1.67703L74.7483 1.67703 74.7483 7.21947 77.7496 7.21947C80.0095 7.21947 81.1922 6.21387 81.1922 4.44825Z" class="MsftOfcThm_Accent1_Fill_v2" fill="#156082" transform="matrix(1.00776 0 0 1 -38 101.021)"/><path d="M85.3048 7.16663 85.3048 0.141436 87.0704 0.141436 87.0704 7.09669C87.0704 9.83216 88.3231 11.0678 90.5473 11.0678 92.7714 11.0678 94.0428 9.83216 94.0428 7.09669L94.0428 0.141436 95.7555 0.141436 95.7555 7.16663C95.7555 10.7492 93.7956 12.6391 90.5302 12.6391 87.2647 12.6391 85.3048 10.7507 85.3048 7.16663Z" class="MsftOfcThm_Accent1_Fill_v2" fill="#156082" transform="matrix(1.00776 0 0 1 -38 101.021)"/><path d="M101.419 1.67703 97.1823 1.67703 97.1823 0.141436 107.403 0.141436 107.403 1.67703 103.166 1.67703 103.166 12.4977 101.419 12.4977 101.419 1.67703Z" class="MsftOfcThm_Accent1_Fill_v2" fill="#156082" transform="matrix(1.00776 0 0 1 -38 101.021)"/><path d="M118.118 10.9621 118.118 12.4977 109.15 12.4977 109.15 0.141436 117.871 0.141436 117.871 1.67703 110.916 1.67703 110.916 5.4725 117.111 5.4725 117.111 6.97235 110.916 6.97235 110.916 10.9621 118.118 10.9621Z" class="MsftOfcThm_Accent1_Fill_v2" fill="#156082" transform="matrix(1.00776 0 0 1 -38 101.021)"/><path d="M129.06 12.4977 126.394 8.70222C126.147 8.71932 125.883 8.73797 125.617 8.73797L122.563 8.73797 122.563 12.4977 120.798 12.4977 120.798 0.141436 125.617 0.141436C128.83 0.141436 130.771 1.76562 130.771 4.44825 130.771 6.35531 129.783 7.73082 128.053 8.34941L130.983 12.4977 129.058 12.4977ZM129.007 4.44825C129.007 2.68263 127.824 1.67703 125.564 1.67703L122.563 1.67703 122.563 7.23812 125.564 7.23812C127.824 7.23812 129.007 6.21387 129.007 4.44981Z" class="MsftOfcThm_Accent1_Fill_v2" fill="#156082" transform="matrix(1.00776 0 0 1 -38 101.021)"/><path d="M0 23.2189C0 19.4592 2.87691 16.7936 6.79672 16.7936 9.07369 16.7936 10.9093 17.6236 12.1107 19.1234L9.88656 21.1362C9.10944 20.2005 8.15668 19.6892 6.9739 19.6892 4.94406 19.6892 3.53125 21.102 3.53125 23.2189 3.53125 25.3358 4.94406 26.7486 6.9739 26.7486 8.15668 26.7486 9.10944 26.2372 9.88656 25.3016L12.1107 27.3143C10.9108 28.8142 9.07524 29.6441 6.79672 29.6441 2.87846 29.6441-1.10436e-15 26.9786-1.10436e-15 23.2189Z" class="MsftOfcThm_Accent1_Fill_v2" fill="#156082" transform="matrix(1.00776 0 0 1 -38 101.021)"/><path d="M21.5527 26.9957 16.3274 26.9957 15.3559 29.397 11.7905 29.397 17.2444 17.0408 20.687 17.0408 26.1595 29.397 22.5226 29.397 21.5512 26.9957ZM20.5285 24.4188 18.94 20.4648 17.3516 24.4188 20.5285 24.4188Z" class="MsftOfcThm_Accent1_Fill_v2" fill="#156082" transform="matrix(1.00776 0 0 1 -38 101.021)"/><path d="M32.3718 26.1144 30.4648 26.1144 30.4648 29.397 26.9693 29.397 26.9693 17.0408 32.6174 17.0408C35.9886 17.0408 38.107 18.7877 38.107 21.6133 38.107 23.4318 37.2242 24.7731 35.6886 25.5145L38.3541 29.3986 34.6115 29.3986 32.3703 26.116ZM32.4076 19.7949 30.4663 19.7949 30.4663 23.4132 32.4076 23.4132C33.8546 23.4132 34.5789 22.7417 34.5789 21.6133 34.5789 20.485 33.8546 19.7949 32.4076 19.7949Z" class="MsftOfcThm_Accent1_Fill_v2" fill="#156082" transform="matrix(1.00776 0 0 1 -38 101.021)"/><path d="M49.7747 26.6957 49.7747 29.397 39.854 29.397 39.854 17.0408 49.5447 17.0408 49.5447 19.742 43.3137 19.742 43.3137 21.8247 48.8033 21.8247 48.8033 24.4374 43.3137 24.4374 43.3137 26.6973 49.7747 26.6973Z" class="MsftOfcThm_Accent1_Fill_v2" fill="#156082" transform="matrix(1.00776 0 0 1 -38 101.021)"/><path d="M61.4595 26.6957 61.4595 29.397 51.5388 29.397 51.5388 17.0408 61.2295 17.0408 61.2295 19.742 54.9985 19.742 54.9985 21.8247 60.4881 21.8247 60.4881 24.4374 54.9985 24.4374 54.9985 26.6973 61.4595 26.6973Z" class="MsftOfcThm_Accent1_Fill_v2" fill="#156082" transform="matrix(1.00776 0 0 1 -38 101.021)"/><path d="M68.6262 26.1144 66.7191 26.1144 66.7191 29.397 63.2236 29.397 63.2236 17.0408 68.8717 17.0408C72.2429 17.0408 74.3613 18.7877 74.3613 21.6133 74.3613 23.4318 73.4785 24.7731 71.9429 25.5145L74.6085 29.3986 70.8658 29.3986 68.6246 26.116ZM68.6604 19.7949 66.7191 19.7949 66.7191 23.4132 68.6604 23.4132C70.1074 23.4132 70.8316 22.7417 70.8316 21.6133 70.8316 20.485 70.1074 19.7949 68.6604 19.7949Z" class="MsftOfcThm_Accent1_Fill_v2" fill="#156082" transform="matrix(1.00776 0 0 1 -38 101.021)"/><path d="M1.72988 34.4841 0 34.4841 0 33.8577 4.17315 33.8577 4.17315 34.4841 2.44327 34.4841 2.44327 38.9012 1.72988 38.9012 1.72988 34.4841Z" class="MsftOfcThm_Accent1_Fill_v2" fill="#156082" transform="matrix(1.00776 0 0 1 -38 101.021)"/><path d="M9.18093 38.9012 8.09296 37.3516C7.95774 37.361 7.85205 37.3656 7.77589 37.3656L6.52939 37.3656 6.52939 38.9012 5.80822 38.9012 5.80822 33.8561 7.77589 33.8561C8.42867 33.8561 8.94313 34.0116 9.3177 34.324 9.69228 34.6364 9.88034 35.0669 9.88034 35.614 9.88034 36.0025 9.78398 36.3352 9.5928 36.6087 9.40008 36.8823 9.12653 37.0827 8.77061 37.2071L9.96738 38.9012 9.18248 38.9012ZM8.79859 36.4579C9.03949 36.2606 9.15917 35.9792 9.15917 35.6155 9.15917 35.2519 9.03949 34.9705 8.79859 34.7762 8.55768 34.582 8.20953 34.4841 7.75413 34.4841L6.52939 34.4841 6.52939 36.7548 7.75413 36.7548C8.21108 36.7548 8.55923 36.6569 8.79859 36.4595Z" class="MsftOfcThm_Accent1_Fill_v2" fill="#156082" transform="matrix(1.00776 0 0 1 -38 101.021)"/><path d="M15.1119 37.6392 12.4309 37.6392 11.876 38.8997 11.1331 38.8997 13.4178 33.8546 14.1312 33.8546 16.4222 38.8997 15.6652 38.8997 15.1104 37.6392ZM14.8601 37.0641 13.7722 34.5928 12.6842 37.0641 14.8601 37.0641Z" class="MsftOfcThm_Accent1_Fill_v2" fill="#156082" transform="matrix(1.00776 0 0 1 -38 101.021)"/><path d="M18.023 33.8561 18.7442 33.8561 18.7442 38.9012 18.023 38.9012 18.023 33.8561Z" class="MsftOfcThm_Accent1_Fill_v2" fill="#156082" transform="matrix(1.00776 0 0 1 -38 101.021)"/><path d="M25.4461 33.8561 25.4461 38.9012 24.8555 38.9012 21.8294 35.1399 21.8294 38.9012 21.1082 38.9012 21.1082 33.8561 21.6988 33.8561 24.7249 37.6174 24.7249 33.8561 25.4461 33.8561Z" class="MsftOfcThm_Accent1_Fill_v2" fill="#156082" transform="matrix(1.00776 0 0 1 -38 101.021)"/><path d="M27.8086 33.8561 28.5297 33.8561 28.5297 38.9012 27.8086 38.9012 27.8086 33.8561Z" class="MsftOfcThm_Accent1_Fill_v2" fill="#156082" transform="matrix(1.00776 0 0 1 -38 101.021)"/><path d="M35.2316 33.8561 35.2316 38.9012 34.641 38.9012 31.6149 35.1399 31.6149 38.9012 30.8937 38.9012 30.8937 33.8561 31.4844 33.8561 34.5105 37.6174 34.5105 33.8561 35.2316 33.8561Z" class="MsftOfcThm_Accent1_Fill_v2" fill="#156082" transform="matrix(1.00776 0 0 1 -38 101.021)"/><path d="M41.0912 36.3491 41.7828 36.3491 41.7828 38.3168C41.5326 38.5235 41.2419 38.6821 40.9109 38.7924 40.5798 38.9028 40.2332 38.9587 39.8726 38.9587 39.3628 38.9587 38.9043 38.8468 38.4956 38.623 38.0868 38.3992 37.7666 38.093 37.5335 37.7013 37.3003 37.3097 37.1838 36.8698 37.1838 36.3787 37.1838 35.8875 37.3003 35.4461 37.5335 35.0529 37.7666 34.6597 38.0883 34.3519 38.4987 34.1312 38.909 33.9105 39.3722 33.8002 39.8866 33.8002 40.2907 33.8002 40.656 33.867 40.9855 33.9991 41.315 34.1312 41.5947 34.324 41.8248 34.5789L41.3787 35.0265C40.9746 34.6379 40.4881 34.4421 39.9161 34.4421 39.5322 34.4421 39.1872 34.5245 38.8826 34.6908 38.5779 34.8571 38.3386 35.0871 38.1661 35.3824 37.9935 35.6777 37.9065 36.0103 37.9065 36.3802 37.9065 36.7501 37.9935 37.075 38.1661 37.3703 38.3386 37.6656 38.5779 37.8972 38.8826 38.065 39.1872 38.2329 39.5291 38.3168 39.9099 38.3168 40.3607 38.3168 40.7554 38.208 41.0912 37.992L41.0912 36.3491Z" class="MsftOfcThm_Accent1_Fill_v2" fill="#156082" transform="matrix(1.00776 0 0 1 -38 101.021)"/><path d="M47.518 34.4841 47.518 36.2419 50.0467 36.2419 50.0467 36.862 47.518 36.862 47.518 38.9012 46.7968 38.9012 46.7968 33.8561 50.356 33.8561 50.356 34.4825 47.5164 34.4825Z" class="MsftOfcThm_Accent1_Fill_v2" fill="#156082" transform="matrix(1.00776 0 0 1 -38 101.021)"/><path d="M53.0682 38.623C52.6594 38.3992 52.3392 38.0915 52.1061 37.6967 51.873 37.3035 51.7564 36.8636 51.7564 36.3771 51.7564 35.8906 51.873 35.4523 52.1061 35.0576 52.3392 34.6643 52.6594 34.355 53.0682 34.1312 53.4769 33.9074 53.9354 33.7955 54.4452 33.7955 54.955 33.7955 55.4058 33.9074 55.8145 34.1312 56.2233 34.355 56.5419 34.6628 56.7735 35.0529 57.0035 35.4446 57.1201 35.886 57.1201 36.3756 57.1201 36.8652 57.0051 37.3066 56.7735 37.6982 56.5435 38.0899 56.2233 38.3976 55.8145 38.6199 55.4058 38.8437 54.9504 38.9556 54.4452 38.9556 53.9401 38.9556 53.4769 38.8437 53.0682 38.6199ZM55.4415 38.065C55.7368 37.8972 55.9699 37.6656 56.1409 37.3703 56.3119 37.075 56.3974 36.7439 56.3974 36.3802 56.3974 36.0165 56.3119 35.6855 56.1409 35.3902 55.9699 35.0949 55.7368 34.8633 55.4415 34.6954 55.1462 34.5276 54.8136 34.4436 54.4437 34.4436 54.0738 34.4436 53.738 34.5276 53.4381 34.6954 53.1381 34.8633 52.9019 35.0949 52.7325 35.3902 52.5615 35.6855 52.476 36.0165 52.476 36.3802 52.476 36.7439 52.5615 37.075 52.7325 37.3703 52.9034 37.6656 53.1381 37.8972 53.4381 38.065 53.738 38.2329 54.0738 38.3168 54.4437 38.3168 54.8136 38.3168 55.1462 38.2329 55.4415 38.065Z" class="MsftOfcThm_Accent1_Fill_v2" fill="#156082" transform="matrix(1.00776 0 0 1 -38 101.021)"/><path d="M62.4434 38.9012 61.3554 37.3516C61.2202 37.361 61.1145 37.3656 61.0383 37.3656L59.7918 37.3656 59.7918 38.9012 59.0707 38.9012 59.0707 33.8561 61.0383 33.8561C61.6911 33.8561 62.2056 34.0116 62.5802 34.324 62.9547 34.6364 63.1428 35.0669 63.1428 35.614 63.1428 36.0025 63.0464 36.3352 62.8537 36.6087 62.661 36.8823 62.3874 37.0827 62.0331 37.2071L63.2298 38.9012 62.4449 38.9012ZM62.061 36.4579C62.3019 36.2606 62.4216 35.9792 62.4216 35.6155 62.4216 35.2519 62.3019 34.9705 62.061 34.7762 61.8201 34.582 61.472 34.4841 61.0166 34.4841L59.7918 34.4841 59.7918 36.7548 61.0166 36.7548C61.4735 36.7548 61.8217 36.6569 62.061 36.4595Z" class="MsftOfcThm_Accent1_Fill_v2" fill="#156082" transform="matrix(1.00776 0 0 1 -38 101.021)"/><path d="M71.1627 37.6392 68.4816 37.6392 67.9268 38.8997 67.1838 38.8997 69.4686 33.8546 70.182 33.8546 72.4729 38.8997 71.716 38.8997 71.1611 37.6392ZM70.9109 37.0641 69.8229 34.5928 68.735 37.0641 70.9109 37.0641Z" class="MsftOfcThm_Accent1_Fill_v2" fill="#156082" transform="matrix(1.00776 0 0 1 -38 101.021)"/><path d="M80.9482 36.7284C81.1161 36.9429 81.2 37.2118 81.2 37.5397 81.2 37.9764 81.0353 38.3137 80.7058 38.5484 80.3763 38.7846 79.8976 38.9012 79.2681 38.9012L76.8606 38.9012 76.8606 33.8561 79.1235 33.8561C79.7002 33.8561 80.1462 33.9712 80.4602 34.2027 80.7742 34.4328 80.9327 34.7529 80.9327 35.1617 80.9327 35.4259 80.8721 35.6544 80.7493 35.8456 80.6265 36.0383 80.4618 36.1844 80.255 36.2854 80.5472 36.3678 80.7788 36.5154 80.9467 36.7284ZM77.5833 34.4405 77.5833 36.0554 79.0598 36.0554C79.4297 36.0554 79.7142 35.987 79.9131 35.8502 80.112 35.7135 80.2115 35.513 80.2115 35.2487 80.2115 34.9845 80.112 34.784 79.9131 34.6472 79.7142 34.5105 79.4297 34.4421 79.0598 34.4421L77.5833 34.4421ZM80.1633 38.1148C80.37 37.9795 80.4726 37.7682 80.4726 37.4806 80.4726 36.918 80.0623 36.6382 79.2401 36.6382L77.5833 36.6382 77.5833 38.3168 79.2401 38.3168C79.6489 38.3168 79.9566 38.25 80.1618 38.1148Z" class="MsftOfcThm_Accent1_Fill_v2" fill="#156082" transform="matrix(1.00776 0 0 1 -38 101.021)"/><path d="M86.8295 38.2733 86.8295 38.8997 83.1692 38.8997 83.1692 33.8546 86.7285 33.8546 86.7285 34.4809 83.8889 34.4809 83.8889 36.0305 86.4176 36.0305 86.4176 36.6429 83.8889 36.6429 83.8889 38.2717 86.8295 38.2717Z" class="MsftOfcThm_Accent1_Fill_v2" fill="#156082" transform="matrix(1.00776 0 0 1 -38 101.021)"/><path d="M89.8478 34.4841 88.118 34.4841 88.118 33.8577 92.2911 33.8577 92.2911 34.4841 90.5612 34.4841 90.5612 38.9012 89.8478 38.9012 89.8478 34.4841Z" class="MsftOfcThm_Accent1_Fill_v2" fill="#156082" transform="matrix(1.00776 0 0 1 -38 101.021)"/><path d="M95.0017 34.4841 93.2718 34.4841 93.2718 33.8577 97.445 33.8577 97.445 34.4841 95.7151 34.4841 95.7151 38.9012 95.0017 38.9012 95.0017 34.4841Z" class="MsftOfcThm_Accent1_Fill_v2" fill="#156082" transform="matrix(1.00776 0 0 1 -38 101.021)"/><path d="M102.74 38.2733 102.74 38.8997 99.0801 38.8997 99.0801 33.8546 102.639 33.8546 102.639 34.4809 99.7997 34.4809 99.7997 36.0305 102.328 36.0305 102.328 36.6429 99.7997 36.6429 99.7997 38.2717 102.74 38.2717Z" class="MsftOfcThm_Accent1_Fill_v2" fill="#156082" transform="matrix(1.00776 0 0 1 -38 101.021)"/><path d="M108.13 38.9012 107.042 37.3516C106.907 37.361 106.802 37.3656 106.725 37.3656L105.479 37.3656 105.479 38.9012 104.758 38.9012 104.758 33.8561 106.725 33.8561C107.378 33.8561 107.893 34.0116 108.267 34.324 108.642 34.6364 108.83 35.0669 108.83 35.614 108.83 36.0025 108.733 36.3352 108.542 36.6087 108.351 36.8823 108.076 37.0827 107.72 37.2071L108.917 38.9012 108.132 38.9012ZM107.75 36.4579C107.991 36.2606 108.11 35.9792 108.11 35.6155 108.11 35.2519 107.991 34.9705 107.75 34.7762 107.509 34.582 107.161 34.4841 106.705 34.4841L105.48 34.4841 105.48 36.7548 106.705 36.7548C107.162 36.7548 107.51 36.6569 107.75 36.4595Z" class="MsftOfcThm_Accent1_Fill_v2" fill="#156082" transform="matrix(1.00776 0 0 1 -38 101.021)"/><path d="M113.637 33.8561 114.358 33.8561 114.358 38.2733 117.089 38.2733 117.089 38.8997 113.637 38.8997 113.637 33.8546Z" class="MsftOfcThm_Accent1_Fill_v2" fill="#156082" transform="matrix(1.00776 0 0 1 -38 101.021)"/><path d="M118.768 33.8561 119.489 33.8561 119.489 38.9012 118.768 38.9012 118.768 33.8561Z" class="MsftOfcThm_Accent1_Fill_v2" fill="#156082" transform="matrix(1.00776 0 0 1 -38 101.021)"/><path d="M122.572 34.4841 122.572 36.2419 125.101 36.2419 125.101 36.862 122.572 36.862 122.572 38.9012 121.851 38.9012 121.851 33.8561 125.411 33.8561 125.411 34.4825 122.571 34.4825Z" class="MsftOfcThm_Accent1_Fill_v2" fill="#156082" transform="matrix(1.00776 0 0 1 -38 101.021)"/><path d="M130.939 38.2733 130.939 38.8997 127.279 38.8997 127.279 33.8546 130.838 33.8546 130.838 34.4809 127.998 34.4809 127.998 36.0305 130.527 36.0305 130.527 36.6429 127.998 36.6429 127.998 38.2717 130.939 38.2717Z" class="MsftOfcThm_Accent1_Fill_v2" fill="#156082" transform="matrix(1.00776 0 0 1 -38 101.021)"/></g></svg>