<?xml version="1.0" encoding="UTF-8"?>
<svg id="Layer_2" data-name="Layer 2" xmlns="http://www.w3.org/2000/svg" viewBox="0 0 567.81 106.04">
  <g id="Layer_1-2" data-name="Layer 1">
    <g>
      <path d="M84.17,106.04l-10.73-23.55H24.67l-10.73,23.55H0L49.05,0l49.05,106.04h-13.94ZM68.14,71.21l-19.09-41.81-18.95,41.81h38.04Z" fill="#807f83"/>
      <path d="M154.25,1.81c18.12,0,32.05,10.73,32.05,31.63s-13.93,31.49-32.05,31.49h-28.01v41.11h-12.82V1.81h40.83ZM126.1,53.65h26.61c11.15,0,20.49-6.55,20.49-20.21s-9.34-20.34-20.49-20.34h-26.61v40.55Z" fill="#807f83"/>
      <polygon points="245.24 13.1 245.24 106.04 232.42 106.04 232.42 13.1 193.68 13.1 193.68 1.81 283.98 1.81 283.98 13.1 245.24 13.1" fill="#807f83"/>
      <path d="M423.87,64.24h-27.17v41.8h-12.82V1.81h40.27c17.98,0,32.05,10.45,32.05,31.21,0,15.33-7.66,25.08-19.09,29.12l24.52,43.89h-14.35l-23.41-41.8ZM422.62,52.95c11.01,0,20.49-6.27,20.49-19.93s-9.48-19.93-20.49-19.93h-26.06v39.85h26.06Z" fill="#807f83"/>
      <path d="M553.88,106.04l-10.73-23.55h-48.77l-10.73,23.55h-13.94L518.76,0l49.05,106.04h-13.93ZM537.85,71.21l-19.09-41.81-18.95,41.81h38.04Z" fill="#807f83"/>
      <polygon points="319.39 29.4 354.65 106.04 368.44 106.04 319.39 0 270.34 106.04 284.12 106.04 319.39 29.4" fill="#333"/>
      <path d="M84.17,106.04l-10.73-23.55H24.67l-10.73,23.55H0L49.05,0l49.05,106.04h-13.94ZM68.14,71.21l-19.09-41.81-18.95,41.81h38.04Z" fill="#807f83"/>
      <path d="M154.25,1.81c18.12,0,32.05,10.73,32.05,31.63s-13.93,31.49-32.05,31.49h-28.01v41.11h-12.82V1.81h40.83ZM126.1,53.65h26.61c11.15,0,20.49-6.55,20.49-20.21s-9.34-20.34-20.49-20.34h-26.61v40.55Z" fill="#807f83"/>
      <polygon points="245.24 13.1 245.24 106.04 232.42 106.04 232.42 13.1 193.68 13.1 193.68 1.81 283.98 1.81 283.98 13.1 245.24 13.1" fill="#807f83"/>
      <path d="M423.87,64.24h-27.17v41.8h-12.82V1.81h40.27c17.98,0,32.05,10.45,32.05,31.21,0,15.33-7.66,25.08-19.09,29.12l24.52,43.89h-14.35l-23.41-41.8ZM422.62,52.95c11.01,0,20.49-6.27,20.49-19.93s-9.48-19.93-20.49-19.93h-26.06v39.85h26.06Z" fill="#807f83"/>
      <path d="M553.88,106.04l-10.73-23.55h-48.77l-10.73,23.55h-13.94L518.76,0l49.05,106.04h-13.93ZM537.85,71.21l-19.09-41.81-18.95,41.81h38.04Z" fill="#807f83"/>
      <polygon points="319.39 29.4 354.65 106.04 368.44 106.04 319.39 0 270.34 106.04 284.12 106.04 319.39 29.4" fill="#005984"/>
    </g>
  </g>
</svg>