<svg width="434.719" height="331.09" xmlns="http://www.w3.org/2000/svg" xmlns:xlink="http://www.w3.org/1999/xlink" overflow="hidden"><g fill="#FFFFFF"><path d="M128.363 170.664 120.091 178.936 120.091 208.825 101.121 208.825 101.121 121.693 120.092 121.693 120.092 157.98 155.937 121.693 178.437 121.693 140.937 159.965 179.319 208.825 157.481 208.825Z" fill="#050F50"/><path d="M254.21 201.546C249.799 205.958 243.291 208.825 233.917 208.825L181.086 208.825 181.086 121.694 230.278 121.694C239.652 121.694 246.491 124.451 250.462 128.311 253.991 131.73 255.976 136.911 255.976 143.2 255.976 149.489 254.211 155.332 250.462 159.082 248.108 161.269 245.216 162.792 242.08 163.494 246.933 163.935 252.337 167.023 255.425 170.222 258.625 173.531 260.168 179.046 260.168 185.222 260.171 191.839 257.961 197.796 254.21 201.546ZM236.122 147.282C236.215 144.325 235.1 141.458 233.034 139.341 231.158 137.687 228.291 137.025 224.652 137.025L199.726 137.025 199.726 158.09 226.526 158.09C228.916 158.205 231.254 157.373 233.034 155.774 234.909 154.012 236.122 151.142 236.122 147.282ZM237.222 191.069C239.322 189.414 240.2 186.769 240.2 183.679 240.2 180.26 239.319 177.279 237 175.407 234.572 173.64 231.617 172.747 228.617 172.871L199.717 172.871 199.717 193.385 228.393 193.385C232.152 193.384 235.241 192.612 237.226 191.068Z" fill="#050F50"/><path d="M341.346 183.679C341.346 199.45 328.883 210.039 303.846 210.039 277.485 210.039 268.001 202.098 264.47 191.069 263.705 188.151 263.298 185.151 263.258 182.135L282.89 182.135C282.952 184.032 283.364 185.902 284.104 187.65 286.53 192.724 292.265 194.929 303.847 194.929 317.082 194.929 321.714 191.289 321.714 185.554 321.714 178.385 318.074 175.849 303.956 173.202 301.42 172.759 295.023 171.547 291.163 170.775 274.177 167.575 263.7 159.746 263.7 145.298 263.7 130.519 275.612 120.592 301.2 120.592 323.038 120.592 333.3 128.202 337.707 139.231 338.815 141.9 339.486 144.73 339.693 147.613L320.059 147.613C319.923 146.117 319.512 144.66 318.847 143.313 316.53 138.46 311.788 135.923 300.758 135.923 286.31 135.923 283.443 139.123 283.443 144.085 283.443 150.485 288.626 153.018 302.855 155.885 307.267 156.766 313.002 157.985 314.987 158.311 332.301 161.62 341.346 168.79 341.346 183.679Z" fill="#050F50"/><path d="M396.292 175.063 226.822 302.193 226.822 331.093 434.722 175.01 396.222 175.01Z" fill="#050F50"/><path d="M38.426 175.063 207.897 302.193 207.897 331.093-0.001 175.007 38.499 175.007Z" fill="#050F50"/><path d="M396.292 156.028 226.821 28.9 226.821 0 434.721 156.083 396.221 156.083Z" fill="#050F50"/><path d="M38.426 156.028 207.897 28.9 207.897 0-0.001 156.083 38.499 156.083Z" fill="#050F50"/></g></svg>