<svg viewBox="0 0 567.81 106.04" xmlns="http://www.w3.org/2000/svg" xmlns:xlink="http://www.w3.org/1999/xlink" id="Layer_2" overflow="hidden"><g id="Layer_1-2"><g><path d="M84.17 106.04 73.44 82.49 24.67 82.49 13.94 106.04 0 106.04 49.05 0 98.1 106.04 84.16 106.04ZM68.14 71.21 49.05 29.4 30.1 71.21 68.14 71.21Z" fill="#807F83"/><path d="M154.25 1.81C172.37 1.81 186.3 12.54 186.3 33.44 186.3 54.34 172.37 64.93 154.25 64.93L126.24 64.93 126.24 106.04 113.42 106.04 113.42 1.81 154.25 1.81ZM126.1 53.65 152.71 53.65C163.86 53.65 173.2 47.1 173.2 33.44 173.2 19.78 163.86 13.1 152.71 13.1L126.1 13.1 126.1 53.65Z" fill="#807F83"/><path d="M245.24 13.1 245.24 106.04 232.42 106.04 232.42 13.1 193.68 13.1 193.68 1.81 283.98 1.81 283.98 13.1 245.24 13.1Z" fill="#807F83"/><path d="M423.87 64.24 396.7 64.24 396.7 106.04 383.88 106.04 383.88 1.81 424.15 1.81C442.13 1.81 456.2 12.26 456.2 33.02 456.2 48.35 448.54 58.1 437.11 62.14L461.63 106.03 447.28 106.03 423.87 64.23ZM422.62 52.95C433.63 52.95 443.11 46.68 443.11 33.02 443.11 19.36 433.63 13.09 422.62 13.09L396.56 13.09 396.56 52.94 422.62 52.94Z" fill="#807F83"/><path d="M553.88 106.04 543.15 82.49 494.38 82.49 483.65 106.04 469.71 106.04 518.76 0 567.81 106.04 553.88 106.04ZM537.85 71.21 518.76 29.4 499.81 71.21 537.85 71.21Z" fill="#807F83"/><path d="M319.39 29.4 354.65 106.04 368.44 106.04 319.39 0 270.34 106.04 284.12 106.04 319.39 29.4Z" fill="#333333"/><path d="M84.17 106.04 73.44 82.49 24.67 82.49 13.94 106.04 0 106.04 49.05 0 98.1 106.04 84.16 106.04ZM68.14 71.21 49.05 29.4 30.1 71.21 68.14 71.21Z" fill="#807F83"/><path d="M154.25 1.81C172.37 1.81 186.3 12.54 186.3 33.44 186.3 54.34 172.37 64.93 154.25 64.93L126.24 64.93 126.24 106.04 113.42 106.04 113.42 1.81 154.25 1.81ZM126.1 53.65 152.71 53.65C163.86 53.65 173.2 47.1 173.2 33.44 173.2 19.78 163.86 13.1 152.71 13.1L126.1 13.1 126.1 53.65Z" fill="#807F83"/><path d="M245.24 13.1 245.24 106.04 232.42 106.04 232.42 13.1 193.68 13.1 193.68 1.81 283.98 1.81 283.98 13.1 245.24 13.1Z" fill="#807F83"/><path d="M423.87 64.24 396.7 64.24 396.7 106.04 383.88 106.04 383.88 1.81 424.15 1.81C442.13 1.81 456.2 12.26 456.2 33.02 456.2 48.35 448.54 58.1 437.11 62.14L461.63 106.03 447.28 106.03 423.87 64.23ZM422.62 52.95C433.63 52.95 443.11 46.68 443.11 33.02 443.11 19.36 433.63 13.09 422.62 13.09L396.56 13.09 396.56 52.94 422.62 52.94Z" fill="#807F83"/><path d="M553.88 106.04 543.15 82.49 494.38 82.49 483.65 106.04 469.71 106.04 518.76 0 567.81 106.04 553.88 106.04ZM537.85 71.21 518.76 29.4 499.81 71.21 537.85 71.21Z" fill="#807F83"/><path d="M319.39 29.4 354.65 106.04 368.44 106.04 319.39 0 270.34 106.04 284.12 106.04 319.39 29.4Z" fill="#005984"/></g></g></svg>