<svg width="207" height="105" viewBox="0 0 207 105" xmlns="http://www.w3.org/2000/svg" xmlns:xlink="http://www.w3.org/1999/xlink" fill="none" overflow="hidden"><defs><linearGradient x1="11.224" y1="78.4631" x2="27.3374" y2="78.4631" gradientUnits="userSpaceOnUse" id="paint0_linear_3536_4100"><stop offset="0.1229" stop-color="#1550A1"/><stop offset="0.6257" stop-color="#1EBDE2"/></linearGradient><linearGradient x1="11.224" y1="25.8782" x2="27.3374" y2="25.8782" gradientUnits="userSpaceOnUse" id="paint1_linear_3536_4100"><stop offset="0.1229" stop-color="#1550A1"/><stop offset="0.6257" stop-color="#1EBDE2"/></linearGradient></defs><path d="M11.2227 89.8583 11.2227 67.1446C11.2227 65.3974 13.4086 64.5238 14.5744 65.6886L27.3983 78.5014 14.5744 91.1687C13.4086 92.4791 11.2227 91.6055 11.2227 89.8583Z" fill="url(#paint0_linear_3536_4100)"/><path d="M38.4721 76.7545 15.01 53.3129C14.2814 52.5849 13.2613 52.4393 12.387 52.7305 11.5126 53.0217 10.9297 53.8953 10.9297 54.9145L10.9297 57.9721 13.8442 60.8841 13.8442 56.3705 35.9947 78.5018 13.99 100.487 13.99 95.9738 11.0754 98.8858 11.0754 101.943C11.0754 102.817 11.6583 103.691 12.5327 104.127 12.8241 104.273 13.1156 104.273 13.407 104.273 13.99 104.273 14.5729 103.982 15.01 103.545L38.6178 79.9578C39.4922 79.2298 39.4922 77.7738 38.4721 76.7545Z" fill="#FFFFFF"/><path d="M8.30643 95.2459 2.91454 100.488 2.91454 56.3706 8.30643 61.7578 8.30643 57.5354 3.93463 53.1674C3.35172 52.585 2.33163 52.4394 1.45727 52.7306 0.582908 53.1674 0 54.041 0 54.9146L0 101.944C0 102.817 0.582908 103.691 1.45727 104.128 1.74872 104.273 2.04018 104.273 2.33163 104.273 2.91454 104.273 3.49745 103.982 3.93463 103.545L8.30643 99.1771 8.30643 95.2459Z" fill="#FFFFFF"/><path d="M110.023 102.962 110.023 96.4102 112.938 96.4102C113.667 96.4102 114.104 96.5558 114.541 96.9926 114.978 97.2838 115.124 97.8662 115.124 98.4486 115.124 99.031 114.978 99.6134 114.541 99.9046 114.104 100.341 113.667 100.487 112.938 100.487L111.189 100.487 111.189 102.962 110.023 102.962ZM111.044 99.4678 112.792 99.4678C113.229 99.4678 113.521 99.3222 113.667 99.1766 113.812 99.031 113.958 98.7398 113.958 98.4486 113.958 98.1574 113.812 97.8662 113.667 97.7206 113.521 97.575 113.229 97.4294 112.792 97.4294L111.044 97.4294 111.044 99.4678Z" fill="#FFFFFF"/><path d="M117.743 102.962C117.306 102.962 116.869 102.817 116.431 102.671 116.14 102.525 115.849 102.234 115.557 101.797 115.411 101.361 115.266 100.924 115.266 100.487 115.266 99.9045 115.411 99.4677 115.557 99.1765 115.703 98.7397 115.994 98.4485 116.431 98.3029 116.869 98.1573 117.16 98.0117 117.743 98.0117 118.18 98.0117 118.617 98.1573 119.055 98.3029 119.346 98.4485 119.637 98.7397 119.929 99.1765 120.22 99.6133 120.22 100.05 120.22 100.487 120.22 101.069 120.075 101.506 119.929 101.797 119.783 102.234 119.492 102.525 119.055 102.671 118.617 102.962 118.18 102.962 117.743 102.962ZM117.743 102.089C118.18 102.089 118.472 101.943 118.763 101.652 119.055 101.361 119.055 100.924 119.055 100.487 119.055 100.05 118.909 99.6133 118.763 99.3221 118.472 99.0309 118.18 98.8853 117.743 98.8853 117.306 98.8853 117.014 99.0309 116.723 99.3221 116.431 99.6133 116.431 100.05 116.431 100.487 116.431 100.924 116.577 101.361 116.723 101.652 117.014 101.943 117.306 102.089 117.743 102.089Z" fill="#FFFFFF"/><path d="M121.973 102.962 120.516 98.1572 121.536 98.1572 122.556 101.652 123.722 98.1572 124.742 98.1572 125.908 101.652 126.928 98.1572 127.948 98.1572 126.49 102.962 125.325 102.962 124.159 99.4676 122.993 102.962 121.973 102.962Z" fill="#FFFFFF"/><path d="M130.86 102.962C130.423 102.962 129.986 102.817 129.549 102.671 129.111 102.525 128.966 102.234 128.674 101.797 128.529 101.361 128.383 100.924 128.383 100.487 128.383 99.9045 128.529 99.4677 128.674 99.1765 128.82 98.7397 129.111 98.4485 129.549 98.3029 129.986 98.1573 130.277 98.0117 130.86 98.0117 131.297 98.0117 131.735 98.1573 132.026 98.3029 132.317 98.4485 132.609 98.7397 132.755 99.1765 132.9 99.4677 133.046 99.9045 133.046 100.487L133.046 100.924 129.403 100.924C129.403 101.361 129.549 101.652 129.84 101.943 130.132 102.234 130.423 102.234 130.86 102.234 131.152 102.234 131.443 102.234 131.589 102.089 131.735 101.943 131.88 101.797 132.026 101.506L133.046 101.506C132.9 101.943 132.755 102.38 132.317 102.671 131.88 102.817 131.297 102.962 130.86 102.962ZM129.403 99.9045 132.026 99.9045C132.026 99.6133 131.88 99.3221 131.589 99.0309 131.443 98.8853 131.152 98.7397 130.714 98.7397 130.423 98.7397 130.132 98.8853 129.84 99.0309 129.694 99.3221 129.549 99.6133 129.403 99.9045Z" fill="#FFFFFF"/><path d="M134.216 102.961 134.216 99.1756 133.633 99.1756 133.633 98.0108 134.799 98.0108 134.799 98.8844 135.09 98.8844C135.236 98.5932 135.382 98.302 135.673 98.1564 135.964 98.0108 136.256 97.8652 136.547 97.8652L136.985 97.8652 136.985 98.7388 136.547 98.7388C136.11 98.7388 135.819 98.8844 135.527 99.1756 135.236 99.4668 135.236 99.758 135.236 100.195L135.236 102.67 134.216 102.67 134.216 102.961Z" fill="#FFFFFF"/><path d="M138.294 97.4285C138.148 97.4285 138.002 97.4285 137.857 97.2829 137.711 97.1373 137.711 96.9917 137.711 96.8461 137.711 96.7005 137.711 96.5549 137.857 96.4093 138.002 96.2637 138.148 96.2637 138.294 96.2637 138.44 96.2637 138.585 96.2637 138.731 96.4093 138.877 96.5549 138.877 96.7005 138.877 96.8461 138.877 96.9917 138.877 97.1373 138.731 97.2829 138.585 97.4285 138.44 97.4285 138.294 97.4285ZM137.857 102.961 137.857 98.1565 138.877 98.1565 138.877 102.961 137.857 102.961Z" fill="#FFFFFF"/><path d="M140.333 102.961 140.333 99.1756 139.75 99.1756 139.75 98.0108 140.916 98.0108 140.916 98.7388 141.207 98.7388C141.353 98.4476 141.644 98.302 141.936 98.1564 142.227 98.0108 142.519 97.8652 142.956 97.8652 143.539 97.8652 144.122 98.0108 144.413 98.4476 144.705 98.7388 144.996 99.3212 144.996 99.9036L144.996 102.816 143.976 102.816 143.976 100.049C143.976 99.6124 143.83 99.3212 143.685 99.1756 143.539 99.03 143.247 98.8844 142.81 98.8844 142.373 98.8844 142.082 99.03 141.936 99.1756 141.79 99.3212 141.644 99.758 141.644 100.049L141.644 102.816 140.333 102.816 140.333 102.961Z" fill="#FFFFFF"/><path d="M147.91 105C147.181 105 146.744 104.854 146.307 104.563 145.87 104.272 145.578 103.835 145.578 103.398L146.744 103.398C146.89 103.835 147.327 104.126 147.91 104.126 148.347 104.126 148.638 103.98 148.93 103.835 149.221 103.689 149.221 103.252 149.221 102.961L149.221 102.088C149.076 102.379 148.93 102.524 148.638 102.67 148.347 102.816 148.055 102.816 147.764 102.816 147.327 102.816 146.89 102.67 146.598 102.524 146.307 102.379 146.015 102.088 145.87 101.651 145.724 101.214 145.578 100.777 145.578 100.34 145.578 99.6124 145.724 99.03 146.161 98.5932 146.598 98.1564 147.035 97.8652 147.764 97.8652 148.201 97.8652 148.493 98.0108 148.784 98.1564 149.076 98.302 149.221 98.4476 149.367 98.7388L149.658 98.7388 149.658 98.0108 150.679 98.0108 150.679 99.1756 150.096 99.1756 150.096 102.816C150.096 103.544 149.95 103.98 149.513 104.417 149.076 104.854 148.784 105 147.91 105ZM148.055 101.942C148.493 101.942 148.784 101.796 148.93 101.651 149.221 101.36 149.221 101.068 149.221 100.777L149.221 100.34C149.221 99.9036 149.076 99.6124 148.93 99.4668 148.638 99.1756 148.347 99.1756 148.055 99.1756 147.618 99.1756 147.327 99.3212 147.035 99.6124 146.744 99.9036 146.744 100.195 146.744 100.777 146.744 101.214 146.89 101.651 147.035 101.942 147.327 101.796 147.618 101.942 148.055 101.942Z" fill="#FFFFFF"/><path d="M155.487 102.962 153.738 96.4102 154.904 96.4102 156.216 101.361 157.673 96.4102 158.693 96.4102 160.15 101.361 161.462 96.4102 162.628 96.4102 160.879 102.962 159.859 102.962 158.402 98.0118 156.944 102.962 155.487 102.962Z" fill="#FFFFFF"/><path d="M163.215 102.961 163.215 96.2637 164.235 96.2637 164.235 98.8845C164.381 98.5933 164.526 98.4477 164.818 98.3021 165.109 98.1565 165.401 98.1565 165.692 98.1565 166.275 98.1565 166.712 98.3021 167.004 98.7389 167.295 99.1757 167.587 99.6125 167.587 100.195L167.587 103.107 166.567 103.107 166.567 100.34C166.567 99.9037 166.421 99.6125 166.275 99.4669 166.129 99.3213 165.838 99.1757 165.401 99.1757 164.964 99.1757 164.672 99.3213 164.526 99.4669 164.381 99.6125 164.235 100.049 164.235 100.34L164.235 103.107 163.215 103.107 163.215 102.961Z" fill="#FFFFFF"/><path d="M170.206 102.962C169.623 102.962 169.331 102.817 168.894 102.525 168.603 102.234 168.457 101.943 168.457 101.506 168.457 101.069 168.603 100.633 168.894 100.487 169.186 100.196 169.623 100.05 170.206 100.05L171.663 100.05 171.663 99.9045C171.663 99.3221 171.372 98.8853 170.643 98.8853 170.06 98.8853 169.769 99.1765 169.623 99.6133L168.603 99.6133C168.748 99.1765 168.894 98.7397 169.331 98.4485 169.769 98.1573 170.206 98.0117 170.789 98.0117 171.517 98.0117 171.954 98.1573 172.246 98.4485 172.537 98.7397 172.829 99.1765 172.829 99.9045L172.829 101.797 173.266 101.797 173.266 102.962 172.246 102.962 172.246 102.089 171.954 102.089C171.809 102.38 171.517 102.525 171.372 102.671 170.934 102.962 170.643 102.962 170.206 102.962ZM170.351 102.089C170.643 102.089 170.789 102.089 171.08 101.943 171.226 101.797 171.517 101.652 171.517 101.506 171.663 101.361 171.663 101.069 171.663 100.924L171.663 100.778 170.206 100.778C169.623 100.778 169.331 101.069 169.331 101.506 169.331 101.652 169.477 101.943 169.623 101.943 169.914 102.089 170.06 102.089 170.351 102.089Z" fill="#FFFFFF"/><path d="M175.453 102.962C175.162 102.962 175.016 102.816 174.724 102.671 174.579 102.525 174.433 102.234 174.433 101.943L174.433 98.8853 173.559 98.8853 173.559 98.0117 174.433 98.0117 174.433 96.5557 175.453 96.5557 175.453 98.0117 176.619 98.0117 176.619 98.8853 175.453 98.8853 175.453 102.088 176.765 102.088 176.765 102.962 175.453 102.962Z" fill="#FFFFFF"/><path d="M177.348 99.031 177.348 98.4486 177.639 98.4486C177.785 98.4486 177.931 98.4486 177.931 98.303 177.931 98.1574 178.076 98.1574 178.076 98.0118L178.076 97.7206 177.493 97.7206 177.493 96.4102 178.659 96.4102 178.659 98.0118C178.659 98.303 178.513 98.5942 178.368 98.7398 178.222 98.8854 177.931 99.031 177.639 99.031L177.348 99.031Z" fill="#FFFFFF"/><path d="M181.284 102.962C180.555 102.962 180.118 102.817 179.681 102.525 179.243 102.234 179.098 101.797 179.098 101.361L180.118 101.361C180.118 101.652 180.263 101.797 180.409 101.943 180.555 102.089 180.846 102.089 181.284 102.089 181.866 102.089 182.304 101.943 182.304 101.506 182.304 101.361 182.304 101.215 182.158 101.069 182.012 100.924 181.866 100.924 181.721 100.924L180.701 100.778C179.826 100.633 179.389 100.196 179.389 99.4677 179.389 99.0309 179.535 98.5941 179.826 98.4485 180.118 98.3029 180.701 98.0117 181.284 98.0117 181.866 98.0117 182.304 98.1573 182.741 98.4485 183.032 98.7397 183.324 99.1765 183.324 99.6133L182.158 99.6133C182.158 99.3221 182.012 99.1765 181.866 99.0309 181.721 98.8853 181.429 98.8853 181.138 98.8853 180.846 98.8853 180.701 98.8853 180.555 99.0309 180.409 99.1765 180.263 99.3221 180.263 99.4677 180.263 99.6133 180.263 99.7589 180.409 99.7589 180.555 99.7589 180.701 99.9045 180.846 99.9045L181.866 100.05C182.304 100.196 182.741 100.341 182.887 100.487 183.032 100.778 183.178 101.069 183.178 101.361 183.178 101.797 183.032 102.234 182.741 102.525 182.304 102.817 181.866 102.962 181.284 102.962Z" fill="#FFFFFF"/><path d="M192.211 102.962 191.045 102.962 187.547 98.0118 187.547 102.962 186.527 102.962 186.527 96.4102 187.693 96.4102 191.336 101.361 191.336 96.4102 192.356 96.4102 192.356 102.962 192.211 102.962Z" fill="#FFFFFF"/><path d="M195.563 102.962C195.126 102.962 194.689 102.817 194.252 102.671 193.815 102.525 193.669 102.234 193.377 101.797 193.232 101.361 193.086 100.924 193.086 100.487 193.086 99.9045 193.232 99.4677 193.377 99.1765 193.523 98.7397 193.815 98.4485 194.252 98.3029 194.689 98.1573 194.98 98.0117 195.563 98.0117 196 98.0117 196.438 98.1573 196.729 98.3029 197.021 98.4485 197.312 98.7397 197.458 99.1765 197.603 99.4677 197.749 99.9045 197.749 100.487L197.749 100.924 194.106 100.924C194.106 101.361 194.252 101.652 194.543 101.943 194.835 102.234 195.126 102.234 195.563 102.234 195.855 102.234 196.146 102.234 196.292 102.089 196.438 101.943 196.583 101.797 196.729 101.506L197.749 101.506C197.603 101.943 197.458 102.38 197.021 102.671 196.583 102.817 196.146 102.962 195.563 102.962ZM194.252 99.9045 196.875 99.9045C196.875 99.6133 196.729 99.3221 196.438 99.0309 196.292 98.8853 196 98.7397 195.563 98.7397 195.272 98.7397 194.98 98.8853 194.689 99.0309 194.397 99.3221 194.252 99.6133 194.252 99.9045Z" fill="#FFFFFF"/><path d="M198.039 102.962 199.788 100.487 198.039 98.1572 199.205 98.1572 200.371 99.7588 201.537 98.1572 202.702 98.1572 200.954 100.487 202.702 102.962 201.537 102.962 200.225 101.215 198.913 102.962 198.039 102.962Z" fill="#FFFFFF"/><path d="M204.891 102.962C204.599 102.962 204.453 102.816 204.162 102.671 204.016 102.525 203.87 102.234 203.87 101.943L203.87 98.8853 202.996 98.8853 202.996 98.0117 203.87 98.0117 203.87 96.5557 204.891 96.5557 204.891 98.0117 206.056 98.0117 206.056 98.8853 204.891 98.8853 204.891 102.088 206.202 102.088 206.202 102.962 204.891 102.962Z" fill="#FFFFFF"/><path d="M48.9648 90.8776 48.9648 65.3975 58.5828 65.3975C61.3516 65.3975 63.6833 65.9799 65.7234 66.8535 67.7636 67.7271 69.2209 69.3287 70.3867 71.2215 71.4068 73.1143 71.9897 75.4439 71.9897 78.0647 71.9897 80.6855 71.4068 83.0151 70.3867 84.9079 69.2209 86.8007 67.7636 88.2567 65.7234 89.276 63.6833 90.2952 61.3516 90.8776 58.5828 90.8776L48.9648 90.8776ZM53.3367 87.0919 58.5828 87.0919C61.4974 87.0919 63.6833 86.2183 65.2863 84.6167 66.8893 83.0151 67.6179 80.8311 67.6179 78.0647 67.6179 75.2983 66.8893 72.9687 65.2863 71.3671 63.6833 69.7655 61.4974 68.8919 58.5828 68.8919L53.3367 68.8919 53.3367 87.0919Z" fill="#FFFFFF"/><path d="M78.2547 69.6203C77.5261 69.6203 76.9432 69.3291 76.506 68.8923 76.0688 68.4555 75.7773 67.8731 75.7773 67.1451 75.7773 66.4171 76.0688 65.8347 76.506 65.3979 76.9432 64.9611 77.5261 64.6699 78.2547 64.6699 78.9833 64.6699 79.5662 64.9611 80.0034 65.3979 80.4406 65.8347 80.7321 66.4171 80.7321 67.1451 80.7321 67.8731 80.4406 68.4555 80.0034 68.8923 79.5662 69.3291 78.9833 69.6203 78.2547 69.6203ZM76.2145 90.878 76.2145 71.9499 80.4406 71.9499 80.4406 90.878 76.2145 90.878Z" fill="#FFFFFF"/><path d="M93.8445 98.7399C91.0757 98.7399 88.8898 98.1575 87.2868 97.1383 85.5381 95.9735 84.518 94.5175 84.2266 92.4791L88.7441 92.4791C89.327 94.3719 90.93 95.2455 93.6988 95.2455 95.5933 95.2455 96.9048 94.8087 97.9249 93.9351 98.945 93.0615 99.3822 91.8967 99.3822 90.2951L99.3822 87.5287 99.2364 87.5287C98.6535 88.5479 97.9249 89.4215 96.9048 90.0039 95.8847 90.5863 94.5732 90.8775 93.1159 90.8775 91.3672 90.8775 89.7642 90.4407 88.4526 89.7127 87.1411 88.9847 86.121 87.8199 85.3924 86.3639 84.6637 84.9079 84.3723 83.1606 84.3723 81.2678 84.3723 78.3558 85.2466 76.0262 86.8496 74.279 88.4526 72.5318 90.6385 71.6582 93.5531 71.6582 95.1561 71.6582 96.4676 71.9494 97.4877 72.5318 98.6535 73.1142 99.5279 73.9878 100.111 75.007L101.422 75.007 101.422 71.9494 105.94 71.9494 105.94 76.3174 103.754 76.3174 103.754 90.4407C103.754 93.0615 102.88 95.0999 101.277 96.5559 99.6736 98.0119 96.9048 98.7399 93.8445 98.7399ZM94.136 87.0919C95.739 87.0919 96.9048 86.6551 97.9249 85.7815 98.7993 84.9079 99.3822 83.743 99.3822 82.1414L99.3822 80.2486C99.3822 78.7926 98.945 77.6278 97.9249 76.6086 97.0505 75.735 95.739 75.2982 94.136 75.2982 92.3873 75.2982 91.0757 75.8806 90.0556 76.8998 89.0356 77.919 88.5984 79.375 88.5984 81.2678 88.5984 83.1606 89.0356 84.6167 90.0556 85.6359 91.0757 86.6551 92.3873 87.0919 94.136 87.0919Z" fill="#FFFFFF"/><path d="M111.626 69.6203C110.897 69.6203 110.314 69.3291 109.877 68.8923 109.44 68.4555 109.148 67.8731 109.148 67.1451 109.148 66.4171 109.44 65.8347 109.877 65.3979 110.314 64.9611 110.897 64.6699 111.626 64.6699 112.354 64.6699 112.937 64.9611 113.375 65.3979 113.812 65.8347 114.103 66.4171 114.103 67.1451 114.103 67.8731 113.812 68.4555 113.375 68.8923 112.937 69.3291 112.354 69.6203 111.626 69.6203ZM109.44 90.878 109.44 71.9499 113.666 71.9499 113.666 90.878 109.44 90.878Z" fill="#FFFFFF"/><path d="M119.203 90.8776 119.203 65.3975 128.821 65.3975C131.59 65.3975 133.922 65.9799 135.962 66.8535 138.002 67.7271 139.459 69.3287 140.625 71.2215 141.645 73.1143 142.228 75.4439 142.228 78.0647 142.228 80.6855 141.645 83.0151 140.625 84.9079 139.459 86.8007 138.002 88.2567 135.962 89.276 133.922 90.2952 131.59 90.8776 128.821 90.8776L119.203 90.8776ZM123.575 87.0919 128.821 87.0919C131.736 87.0919 133.922 86.2183 135.525 84.6167 137.128 83.0151 137.856 80.8311 137.856 78.0647 137.856 75.2983 137.128 72.9687 135.525 71.3671 133.922 69.7655 131.736 68.8919 128.821 68.8919L123.575 68.8919 123.575 87.0919Z" fill="#FFFFFF"/><path d="M147.619 90.8774 147.619 76.3173 145.434 76.3173 145.434 71.9493 149.951 71.9493 149.951 75.5893 151.263 75.5893C151.7 74.2789 152.574 73.4053 153.74 72.8229 154.906 72.2405 156.072 71.8037 157.529 71.8037L159.132 71.8037 159.132 75.4437 157.383 75.4437C155.634 75.4437 154.177 76.0261 153.303 77.0453 152.428 78.0645 151.991 79.5205 151.991 81.1221L151.991 90.8774 147.619 90.8774Z" fill="#FFFFFF"/><path d="M169.916 91.1685C167.439 91.1685 165.399 90.4405 164.087 89.1301 162.63 87.8197 162.047 85.9269 162.047 83.5973L162.047 71.9492 166.273 71.9492 166.273 82.7237C166.273 84.3253 166.71 85.4901 167.439 86.2181 168.167 86.9461 169.479 87.3829 170.936 87.3829 172.539 87.3829 173.851 86.9461 174.725 86.0725 175.599 85.1989 176.037 84.0341 176.037 82.5781L176.037 71.9492 180.263 71.9492 180.263 86.5093 182.449 86.5093 182.449 90.8773 177.931 90.8773 177.931 87.8197 176.62 87.8197C175.891 88.9845 175.017 89.7125 173.851 90.2949 172.685 90.8773 171.519 91.1685 169.916 91.1685Z" fill="#FFFFFF"/><path d="M197.602 91.1694C195.999 91.1694 194.687 90.8782 193.667 90.2958 192.647 89.7134 191.627 88.8398 191.044 87.8206L189.732 87.8206 189.732 90.8782 185.215 90.8782 185.215 86.5102 187.401 86.5102 187.401 64.3789 191.627 64.3789 191.627 74.7165 191.773 74.7165C192.355 73.6973 193.084 72.8237 194.25 72.3869 195.27 71.8045 196.582 71.5133 198.039 71.5133 199.788 71.5133 201.391 71.9501 202.702 72.6781 204.014 73.4061 205.034 74.5709 205.617 76.0269 206.345 77.483 206.637 79.2302 206.637 81.2686 206.637 83.307 206.345 85.0542 205.617 86.5102 204.888 87.9662 203.868 89.131 202.556 89.859 201.245 90.587 199.496 91.1694 197.602 91.1694ZM196.873 87.5294C198.622 87.5294 199.933 86.947 200.953 85.9278 201.828 84.763 202.411 83.307 202.411 81.4142 202.411 79.5214 201.973 78.0654 200.953 76.9006 200.079 75.8813 198.622 75.2989 196.873 75.2989 195.27 75.2989 194.104 75.7357 193.084 76.6094 192.21 77.483 191.627 78.7934 191.627 80.2494L191.627 82.579C191.627 84.1806 192.064 85.3454 193.084 86.219 193.958 87.0926 195.27 87.5294 196.873 87.5294Z" fill="#FFFFFF"/><path d="M11.2227 37.2733 11.2227 14.5596C11.2227 12.8124 13.4086 11.9388 14.5744 13.1036L27.3983 25.9165 14.5744 38.5837C13.4086 39.8941 11.2227 39.0205 11.2227 37.2733Z" fill="url(#paint1_linear_3536_4100)"/><path d="M38.4721 24.1696 15.01 0.727898C14.2814-0.00010466 13.2613-0.145705 12.387 0.145496 11.5126 0.436697 10.9297 1.3103 10.9297 2.3295L10.9297 5.38712 13.8442 8.29913 13.8442 3.78551 35.9947 25.9168 13.99 47.9025 13.99 43.3889 11.0754 46.3009 11.0754 49.3585C11.0754 50.2321 11.6583 51.1057 12.5327 51.5425 12.8241 51.6881 13.1156 51.6881 13.407 51.6881 13.99 51.6881 14.5729 51.3969 15.01 50.9601L38.6178 27.3728C39.4922 26.6448 39.4922 25.1888 38.4721 24.1696Z" fill="#000000"/><path d="M8.30643 42.661 2.91454 47.9026 2.91454 3.78561 8.30643 9.17283 8.30643 4.95042 3.93463 0.582402C3.35172 0 2.33163-0.145601 1.45727 0.145601 0.582908 0.582402 0 1.45601 0 2.32961L0 49.3586C0 50.2322 0.582908 51.1058 1.45727 51.5426 1.74872 51.6882 2.04018 51.6882 2.33163 51.6882 2.91454 51.6882 3.49745 51.397 3.93463 50.9602L8.30643 46.5922 8.30643 42.661Z" fill="#000000"/><path d="M110.023 50.3772 110.023 43.8252 112.938 43.8252C113.667 43.8252 114.104 43.9708 114.541 44.4076 114.978 44.6988 115.124 45.2812 115.124 45.8636 115.124 46.446 114.978 47.0284 114.541 47.3196 114.104 47.7564 113.667 47.902 112.938 47.902L111.189 47.902 111.189 50.3772 110.023 50.3772ZM111.044 46.8828 112.792 46.8828C113.229 46.8828 113.521 46.7372 113.667 46.5916 113.812 46.446 113.958 46.1548 113.958 45.8636 113.958 45.5724 113.812 45.2812 113.667 45.1356 113.521 44.99 113.229 44.8444 112.792 44.8444L111.044 44.8444 111.044 46.8828Z" fill="#000000"/><path d="M117.743 50.3772C117.306 50.3772 116.869 50.2316 116.431 50.086 116.14 49.9404 115.849 49.6492 115.557 49.2124 115.411 48.7756 115.266 48.3388 115.266 47.902 115.266 47.3196 115.411 46.8828 115.557 46.5916 115.703 46.1548 115.994 45.8636 116.431 45.718 116.869 45.5724 117.16 45.4268 117.743 45.4268 118.18 45.4268 118.617 45.5724 119.055 45.718 119.346 45.8636 119.637 46.1548 119.929 46.5916 120.22 47.0284 120.22 47.4652 120.22 47.902 120.22 48.4844 120.075 48.9212 119.929 49.2124 119.783 49.6492 119.492 49.9404 119.055 50.086 118.617 50.3772 118.18 50.3772 117.743 50.3772ZM117.743 49.5036C118.18 49.5036 118.472 49.358 118.763 49.0668 119.055 48.7756 119.055 48.3388 119.055 47.902 119.055 47.4652 118.909 47.0284 118.763 46.7372 118.472 46.446 118.18 46.3004 117.743 46.3004 117.306 46.3004 117.014 46.446 116.723 46.7372 116.431 47.0284 116.431 47.4652 116.431 47.902 116.431 48.3388 116.577 48.7756 116.723 49.0668 117.014 49.358 117.306 49.5036 117.743 49.5036Z" fill="#000000"/><path d="M121.973 50.3771 120.516 45.5723 121.536 45.5723 122.556 49.0667 123.722 45.5723 124.742 45.5723 125.908 49.0667 126.928 45.5723 127.948 45.5723 126.49 50.3771 125.325 50.3771 124.159 46.8827 122.993 50.3771 121.973 50.3771Z" fill="#000000"/><path d="M130.86 50.3772C130.423 50.3772 129.986 50.2316 129.549 50.086 129.111 49.9404 128.966 49.6492 128.674 49.2124 128.529 48.7756 128.383 48.3388 128.383 47.902 128.383 47.3196 128.529 46.8828 128.674 46.5916 128.82 46.1548 129.111 45.8636 129.549 45.718 129.986 45.5724 130.277 45.4268 130.86 45.4268 131.297 45.4268 131.735 45.5724 132.026 45.718 132.317 45.8636 132.609 46.1548 132.755 46.5916 132.9 46.8828 133.046 47.3196 133.046 47.902L133.046 48.3388 129.403 48.3388C129.403 48.7756 129.549 49.0668 129.84 49.358 130.132 49.6492 130.423 49.6492 130.86 49.6492 131.152 49.6492 131.443 49.6492 131.589 49.5036 131.735 49.358 131.88 49.2124 132.026 48.9212L133.046 48.9212C132.9 49.358 132.755 49.7948 132.317 50.086 131.88 50.2316 131.297 50.3772 130.86 50.3772ZM129.403 47.3196 132.026 47.3196C132.026 47.0284 131.88 46.7372 131.589 46.446 131.443 46.3004 131.152 46.1548 130.714 46.1548 130.423 46.1548 130.132 46.3004 129.84 46.446 129.694 46.7372 129.549 47.0284 129.403 47.3196Z" fill="#000000"/><path d="M134.216 50.3773 134.216 46.5917 133.633 46.5917 133.633 45.4269 134.799 45.4269 134.799 46.3005 135.09 46.3005C135.236 46.0093 135.382 45.718 135.673 45.5724 135.964 45.4268 136.256 45.2812 136.547 45.2812L136.985 45.2812 136.985 46.1549 136.547 46.1549C136.11 46.1549 135.819 46.3005 135.527 46.5917 135.236 46.8829 135.236 47.1741 135.236 47.6109L135.236 50.0861 134.216 50.0861 134.216 50.3773Z" fill="#000000"/><path d="M138.294 44.8445C138.148 44.8445 138.002 44.8445 137.857 44.6989 137.711 44.5533 137.711 44.4077 137.711 44.2621 137.711 44.1165 137.711 43.9709 137.857 43.8253 138.002 43.6797 138.148 43.6797 138.294 43.6797 138.44 43.6797 138.585 43.6797 138.731 43.8253 138.877 43.9709 138.877 44.1165 138.877 44.2621 138.877 44.4077 138.877 44.5533 138.731 44.6989 138.585 44.8445 138.44 44.8445 138.294 44.8445ZM137.857 50.3773 137.857 45.5725 138.877 45.5725 138.877 50.3773 137.857 50.3773Z" fill="#000000"/><path d="M140.333 50.3773 140.333 46.5917 139.75 46.5917 139.75 45.4269 140.916 45.4269 140.916 46.1549 141.207 46.1549C141.353 45.8637 141.644 45.718 141.936 45.5724 142.227 45.4268 142.519 45.2812 142.956 45.2812 143.539 45.2812 144.122 45.4268 144.413 45.8637 144.705 46.1549 144.996 46.7373 144.996 47.3197L144.996 50.2317 143.976 50.2317 143.976 47.4653C143.976 47.0285 143.83 46.7373 143.685 46.5917 143.539 46.4461 143.247 46.3005 142.81 46.3005 142.373 46.3005 142.082 46.4461 141.936 46.5917 141.79 46.7373 141.644 47.1741 141.644 47.4653L141.644 50.2317 140.333 50.2317 140.333 50.3773Z" fill="#000000"/><path d="M147.91 52.4157C147.181 52.4157 146.744 52.2701 146.307 51.9789 145.87 51.6877 145.578 51.2509 145.578 50.8141L146.744 50.8141C146.89 51.2509 147.327 51.5421 147.91 51.5421 148.347 51.5421 148.638 51.3965 148.93 51.2509 149.221 51.1053 149.221 50.6685 149.221 50.3773L149.221 49.5037C149.076 49.7949 148.93 49.9405 148.638 50.0861 148.347 50.2317 148.055 50.2317 147.764 50.2317 147.327 50.2317 146.89 50.0861 146.598 49.9405 146.307 49.7949 146.015 49.5037 145.87 49.0669 145.724 48.6301 145.578 48.1933 145.578 47.7565 145.578 47.0285 145.724 46.4461 146.161 46.0093 146.598 45.5725 147.035 45.2812 147.764 45.2812 148.201 45.2812 148.493 45.4268 148.784 45.5724 149.076 45.7181 149.221 45.8637 149.367 46.1549L149.658 46.1549 149.658 45.4269 150.679 45.4269 150.679 46.5917 150.096 46.5917 150.096 50.2317C150.096 50.9597 149.95 51.3965 149.513 51.8333 149.076 52.2701 148.784 52.4157 147.91 52.4157ZM148.055 49.3581C148.493 49.3581 148.784 49.2125 148.93 49.0669 149.221 48.7757 149.221 48.4845 149.221 48.1933L149.221 47.7565C149.221 47.3197 149.076 47.0285 148.93 46.8829 148.638 46.5917 148.347 46.5917 148.055 46.5917 147.618 46.5917 147.327 46.7373 147.035 47.0285 146.744 47.3197 146.744 47.6109 146.744 48.1933 146.744 48.6301 146.89 49.0669 147.035 49.3581 147.327 49.2125 147.618 49.3581 148.055 49.3581Z" fill="#000000"/><path d="M155.487 50.3772 153.738 43.8252 154.904 43.8252 156.216 48.7756 157.673 43.8252 158.693 43.8252 160.15 48.7756 161.462 43.8252 162.628 43.8252 160.879 50.3772 159.859 50.3772 158.402 45.4268 156.944 50.3772 155.487 50.3772Z" fill="#000000"/><path d="M163.215 50.3773 163.215 43.6797 164.235 43.6797 164.235 46.3005C164.381 46.0093 164.526 45.8637 164.818 45.7181 165.109 45.5725 165.401 45.5725 165.692 45.5725 166.275 45.5725 166.712 45.7181 167.004 46.1549 167.295 46.5917 167.587 47.0285 167.587 47.6109L167.587 50.5229 166.567 50.5229 166.567 47.7565C166.567 47.3197 166.421 47.0285 166.275 46.8829 166.129 46.7373 165.838 46.5917 165.401 46.5917 164.964 46.5917 164.672 46.7373 164.526 46.8829 164.381 47.0285 164.235 47.4653 164.235 47.7565L164.235 50.5229 163.215 50.5229 163.215 50.3773Z" fill="#000000"/><path d="M170.206 50.3772C169.623 50.3772 169.331 50.2316 168.894 49.9404 168.603 49.6492 168.457 49.358 168.457 48.9212 168.457 48.4844 168.603 48.0476 168.894 47.902 169.186 47.6108 169.623 47.4652 170.206 47.4652L171.663 47.4652 171.663 47.3196C171.663 46.7372 171.372 46.3004 170.643 46.3004 170.06 46.3004 169.769 46.5916 169.623 47.0284L168.603 47.0284C168.748 46.5916 168.894 46.1548 169.331 45.8636 169.769 45.5724 170.206 45.4268 170.789 45.4268 171.517 45.4268 171.954 45.5724 172.246 45.8636 172.537 46.1548 172.829 46.5916 172.829 47.3196L172.829 49.2124 173.266 49.2124 173.266 50.3772 172.246 50.3772 172.246 49.5036 171.954 49.5036C171.809 49.7948 171.517 49.9404 171.372 50.086 170.934 50.3772 170.643 50.3772 170.206 50.3772ZM170.351 49.5036C170.643 49.5036 170.789 49.5036 171.08 49.358 171.226 49.2124 171.517 49.0668 171.517 48.9212 171.663 48.7756 171.663 48.4844 171.663 48.3388L171.663 48.1932 170.206 48.1932C169.623 48.1932 169.331 48.4844 169.331 48.9212 169.331 49.0668 169.477 49.358 169.623 49.358 169.914 49.5036 170.06 49.5036 170.351 49.5036Z" fill="#000000"/><path d="M175.453 50.3771C175.162 50.3771 175.016 50.2315 174.724 50.0859 174.579 49.9403 174.433 49.6491 174.433 49.3579L174.433 46.3003 173.559 46.3003 173.559 45.4267 174.433 45.4267 174.433 43.9707 175.453 43.9707 175.453 45.4267 176.619 45.4267 176.619 46.3003 175.453 46.3003 175.453 49.5035 176.765 49.5035 176.765 50.3771 175.453 50.3771Z" fill="#000000"/><path d="M177.348 46.446 177.348 45.8636 177.639 45.8636C177.785 45.8636 177.931 45.8636 177.931 45.718 177.931 45.5724 178.076 45.5724 178.076 45.4268L178.076 45.1356 177.493 45.1356 177.493 43.8252 178.659 43.8252 178.659 45.4268C178.659 45.718 178.513 46.0092 178.368 46.1548 178.222 46.3004 177.931 46.446 177.639 46.446L177.348 46.446Z" fill="#000000"/><path d="M181.284 50.3772C180.555 50.3772 180.118 50.2316 179.681 49.9404 179.243 49.6492 179.098 49.2124 179.098 48.7756L180.118 48.7756C180.118 49.0668 180.263 49.2124 180.409 49.358 180.555 49.5036 180.846 49.5036 181.284 49.5036 181.866 49.5036 182.304 49.358 182.304 48.9212 182.304 48.7756 182.304 48.63 182.158 48.4844 182.012 48.3388 181.866 48.3388 181.721 48.3388L180.701 48.1932C179.826 48.0476 179.389 47.6108 179.389 46.8828 179.389 46.446 179.535 46.0092 179.826 45.8636 180.118 45.718 180.701 45.4268 181.284 45.4268 181.866 45.4268 182.304 45.5724 182.741 45.8636 183.032 46.1548 183.324 46.5916 183.324 47.0284L182.158 47.0284C182.158 46.7372 182.012 46.5916 181.866 46.446 181.721 46.3004 181.429 46.3004 181.138 46.3004 180.846 46.3004 180.701 46.3004 180.555 46.446 180.409 46.5916 180.263 46.7372 180.263 46.8828 180.263 47.0284 180.263 47.174 180.409 47.174 180.555 47.174 180.701 47.3196 180.846 47.3196L181.866 47.4652C182.304 47.6108 182.741 47.7564 182.887 47.902 183.032 48.1932 183.178 48.4844 183.178 48.7756 183.178 49.2124 183.032 49.6492 182.741 49.9404 182.304 50.2316 181.866 50.3772 181.284 50.3772Z" fill="#000000"/><path d="M192.211 50.3772 191.045 50.3772 187.547 45.4268 187.547 50.3772 186.527 50.3772 186.527 43.8252 187.693 43.8252 191.336 48.7756 191.336 43.8252 192.356 43.8252 192.356 50.3772 192.211 50.3772Z" fill="#000000"/><path d="M195.563 50.3772C195.126 50.3772 194.689 50.2316 194.252 50.086 193.815 49.9404 193.669 49.6492 193.377 49.2124 193.232 48.7756 193.086 48.3388 193.086 47.902 193.086 47.3196 193.232 46.8828 193.377 46.5916 193.523 46.1548 193.815 45.8636 194.252 45.718 194.689 45.5724 194.98 45.4268 195.563 45.4268 196 45.4268 196.438 45.5724 196.729 45.718 197.021 45.8636 197.312 46.1548 197.458 46.5916 197.603 46.8828 197.749 47.3196 197.749 47.902L197.749 48.3388 194.106 48.3388C194.106 48.7756 194.252 49.0668 194.543 49.358 194.835 49.6492 195.126 49.6492 195.563 49.6492 195.855 49.6492 196.146 49.6492 196.292 49.5036 196.438 49.358 196.583 49.2124 196.729 48.9212L197.749 48.9212C197.603 49.358 197.458 49.7948 197.021 50.086 196.583 50.2316 196.146 50.3772 195.563 50.3772ZM194.252 47.3196 196.875 47.3196C196.875 47.0284 196.729 46.7372 196.438 46.446 196.292 46.3004 196 46.1548 195.563 46.1548 195.272 46.1548 194.98 46.3004 194.689 46.446 194.397 46.7372 194.252 47.0284 194.252 47.3196Z" fill="#000000"/><path d="M198.039 50.3771 199.788 47.9019 198.039 45.5723 199.205 45.5723 200.371 47.1739 201.537 45.5723 202.702 45.5723 200.954 47.9019 202.702 50.3771 201.537 50.3771 200.225 48.6299 198.913 50.3771 198.039 50.3771Z" fill="#000000"/><path d="M204.891 50.3771C204.599 50.3771 204.453 50.2315 204.162 50.0859 204.016 49.9403 203.87 49.6491 203.87 49.3579L203.87 46.3003 202.996 46.3003 202.996 45.4267 203.87 45.4267 203.87 43.9707 204.891 43.9707 204.891 45.4267 206.056 45.4267 206.056 46.3003 204.891 46.3003 204.891 49.5035 206.202 49.5035 206.202 50.3771 204.891 50.3771Z" fill="#000000"/><path d="M48.9648 38.2926 48.9648 12.8125 58.5828 12.8125C61.3516 12.8125 63.6833 13.3949 65.7234 14.2685 67.7636 15.1421 69.2209 16.7437 70.3867 18.6365 71.4068 20.5293 71.9897 22.8589 71.9897 25.4797 71.9897 28.1006 71.4068 30.4302 70.3867 32.323 69.2209 34.2158 67.7636 35.6718 65.7234 36.691 63.6833 37.7102 61.3516 38.2926 58.5828 38.2926L48.9648 38.2926ZM53.3367 34.507 58.5828 34.507C61.4974 34.507 63.6833 33.6334 65.2863 32.0318 66.8893 30.4302 67.6179 28.2462 67.6179 25.4797 67.6179 22.7133 66.8893 20.3837 65.2863 18.7821 63.6833 17.1805 61.4974 16.3069 58.5828 16.3069L53.3367 16.3069 53.3367 34.507Z" fill="#000000"/><path d="M78.2547 17.0354C77.5261 17.0354 76.9432 16.7442 76.506 16.3074 76.0688 15.8706 75.7773 15.2882 75.7773 14.5602 75.7773 13.8322 76.0688 13.2498 76.506 12.813 76.9432 12.3762 77.5261 12.085 78.2547 12.085 78.9833 12.085 79.5662 12.3762 80.0034 12.813 80.4406 13.2498 80.7321 13.8322 80.7321 14.5602 80.7321 15.2882 80.4406 15.8706 80.0034 16.3074 79.5662 16.7442 78.9833 17.0354 78.2547 17.0354ZM76.2145 38.2931 76.2145 19.365 80.4406 19.365 80.4406 38.2931 76.2145 38.2931Z" fill="#000000"/><path d="M93.8445 46.1559C91.0757 46.1559 88.8898 45.5735 87.2868 44.5543 85.5381 43.3895 84.518 41.9335 84.2266 39.8951L88.7441 39.8951C89.327 41.7879 90.93 42.6615 93.6988 42.6615 95.5933 42.6615 96.9048 42.2247 97.9249 41.3511 98.945 40.4775 99.3822 39.3127 99.3822 37.7111L99.3822 34.9447 99.2364 34.9447C98.6535 35.9639 97.9249 36.8375 96.9048 37.4199 95.8847 38.0023 94.5732 38.2935 93.1159 38.2935 91.3672 38.2935 89.7642 37.8567 88.4526 37.1287 87.1411 36.4007 86.121 35.2359 85.3924 33.7799 84.6637 32.3239 84.3723 30.5767 84.3723 28.6839 84.3723 25.7718 85.2466 23.4422 86.8496 21.695 88.4526 19.9478 90.6385 19.0742 93.5531 19.0742 95.1561 19.0742 96.4676 19.3654 97.4877 19.9478 98.6535 20.5302 99.5279 21.4038 100.111 22.423L101.422 22.423 101.422 19.3654 105.94 19.3654 105.94 23.7334 103.754 23.7334 103.754 37.8567C103.754 40.4775 102.88 42.5159 101.277 43.9719 99.6736 45.4279 96.9048 46.1559 93.8445 46.1559ZM94.136 34.5079C95.739 34.5079 96.9048 34.0711 97.9249 33.1975 98.7993 32.3239 99.3822 31.1591 99.3822 29.5575L99.3822 27.6647C99.3822 26.2086 98.945 25.0438 97.9249 24.0246 97.0505 23.151 95.739 22.7142 94.136 22.7142 92.3873 22.7142 91.0757 23.2966 90.0556 24.3158 89.0356 25.335 88.5984 26.791 88.5984 28.6839 88.5984 30.5767 89.0356 32.0327 90.0556 33.0519 91.0757 34.0711 92.3873 34.5079 94.136 34.5079Z" fill="#000000"/><path d="M111.626 17.0354C110.897 17.0354 110.314 16.7442 109.877 16.3074 109.44 15.8706 109.148 15.2882 109.148 14.5602 109.148 13.8322 109.44 13.2498 109.877 12.813 110.314 12.3762 110.897 12.085 111.626 12.085 112.354 12.085 112.937 12.3762 113.375 12.813 113.812 13.2498 114.103 13.8322 114.103 14.5602 114.103 15.2882 113.812 15.8706 113.375 16.3074 112.937 16.7442 112.354 17.0354 111.626 17.0354ZM109.44 38.2931 109.44 19.365 113.666 19.365 113.666 38.2931 109.44 38.2931Z" fill="#000000"/><path d="M119.203 38.2926 119.203 12.8125 128.821 12.8125C131.59 12.8125 133.922 13.3949 135.962 14.2685 138.002 15.1421 139.459 16.7437 140.625 18.6365 141.645 20.5293 142.228 22.8589 142.228 25.4797 142.228 28.1006 141.645 30.4302 140.625 32.323 139.459 34.2158 138.002 35.6718 135.962 36.691 133.922 37.7102 131.59 38.2926 128.821 38.2926L119.203 38.2926ZM123.575 34.507 128.821 34.507C131.736 34.507 133.922 33.6334 135.525 32.0318 137.128 30.4302 137.856 28.2462 137.856 25.4797 137.856 22.7133 137.128 20.3837 135.525 18.7821 133.922 17.1805 131.736 16.3069 128.821 16.3069L123.575 16.3069 123.575 34.507Z" fill="#000000"/><path d="M147.619 38.2924 147.619 23.7324 145.434 23.7324 145.434 19.3644 149.951 19.3644 149.951 23.0044 151.263 23.0044C151.7 21.694 152.574 20.8204 153.74 20.238 154.906 19.6556 156.072 19.2188 157.529 19.2188L159.132 19.2188 159.132 22.8588 157.383 22.8588C155.634 22.8588 154.177 23.4412 153.303 24.4604 152.428 25.4796 151.991 26.9356 151.991 28.5372L151.991 38.2924 147.619 38.2924Z" fill="#000000"/><path d="M169.916 38.5835C167.439 38.5835 165.399 37.8555 164.087 36.5451 162.63 35.2347 162.047 33.3419 162.047 31.0123L162.047 19.3643 166.273 19.3643 166.273 30.1387C166.273 31.7403 166.71 32.9051 167.439 33.6331 168.167 34.3611 169.479 34.7979 170.936 34.7979 172.539 34.7979 173.851 34.3611 174.725 33.4875 175.599 32.6139 176.037 31.4491 176.037 29.9931L176.037 19.3643 180.263 19.3643 180.263 33.9243 182.449 33.9243 182.449 38.2923 177.931 38.2923 177.931 35.2347 176.62 35.2347C175.891 36.3995 175.017 37.1275 173.851 37.7099 172.685 38.2923 171.519 38.5835 169.916 38.5835Z" fill="#000000"/><path d="M197.602 38.5844C195.999 38.5844 194.687 38.2932 193.667 37.7108 192.647 37.1284 191.627 36.2548 191.044 35.2356L189.732 35.2356 189.732 38.2932 185.215 38.2932 185.215 33.9252 187.401 33.9252 187.401 11.7939 191.627 11.7939 191.627 22.1316 191.773 22.1316C192.355 21.1124 193.084 20.2388 194.25 19.802 195.27 19.2196 196.582 18.9284 198.039 18.9284 199.788 18.9284 201.391 19.3652 202.702 20.0932 204.014 20.8212 205.034 21.986 205.617 23.442 206.345 24.898 206.637 26.6452 206.637 28.6836 206.637 30.722 206.345 32.4692 205.617 33.9252 204.888 35.3812 203.868 36.546 202.556 37.274 201.245 38.002 199.496 38.5844 197.602 38.5844ZM196.873 34.9444C198.622 34.9444 199.933 34.362 200.953 33.3428 201.828 32.178 202.411 30.722 202.411 28.8292 202.411 26.9364 201.973 25.4804 200.953 24.3156 200.079 23.2964 198.622 22.714 196.873 22.714 195.27 22.714 194.104 23.1508 193.084 24.0244 192.21 24.898 191.627 26.2084 191.627 27.6644L191.627 29.994C191.627 31.5956 192.064 32.7604 193.084 33.634 193.958 34.5076 195.27 34.9444 196.873 34.9444Z" fill="#000000"/></svg>