<svg viewBox="0 0 155.48 41.76" xmlns="http://www.w3.org/2000/svg" xmlns:xlink="http://www.w3.org/1999/xlink" id="Layer_1" overflow="hidden"><defs><linearGradient x1="-27.6" y1="5.62" x2="-21.21" y2="41.85" gradientUnits="userSpaceOnUse" id="linear-gradient" gradientTransform="matrix(0.983287 -0.182064 0.182064 0.983287 46.39 -8.52)"><stop offset="0" stop-color="#4F9AD4"/><stop offset="0.07" stop-color="#4B91CC"/><stop offset="0.49" stop-color="#36629F"/><stop offset="0.82" stop-color="#284584"/><stop offset="1" stop-color="#243A7A"/></linearGradient></defs><path d="M50.03 7.8C50.26 9.04 49.44 10.23 48.2 10.46 47.59 10.57 46.99 10.43 46.51 10.11L41.11 14.51C41.36 14.94 41.55 15.41 41.65 15.93 42.09 18.31 40.52 20.59 38.14 21.03 36.94 21.25 35.76 20.96 34.83 20.31L32.35 22.9C32.47 23.11 32.57 23.34 32.61 23.6 32.84 24.84 32.02 26.03 30.78 26.26 29.54 26.49 28.35 25.67 28.12 24.43 27.89 23.19 28.71 22 29.95 21.77 30.46 21.67 30.96 21.77 31.4 21.99L33.88 19.41C33.47 18.88 33.17 18.25 33.04 17.54 32.6 15.16 34.17 12.88 36.55 12.44 37.94 12.18 39.3 12.62 40.28 13.5L45.68 9.1C45.68 9.1 45.66 9.05 45.66 9.02L40.03 9.36C39.83 9.98 39.31 10.48 38.63 10.6 37.63 10.78 36.68 10.13 36.49 9.13 36.35 8.38 36.69 7.65 37.3 7.26L36.74 4.57C35.75 4.48 34.89 3.75 34.7 2.72 34.47 1.48 35.29 0.29 36.53 0.06 37.77-0.17 38.96 0.65 39.19 1.89 39.37 2.89 38.88 3.84 38.03 4.3L38.59 7C39.18 7.1 39.7 7.49 39.95 8.04L45.57 7.7C45.77 6.85 46.46 6.15 47.37 5.98 48.61 5.75 49.8 6.57 50.03 7.81ZM17.44 24.89C18.38 25.83 19.74 26.3 21.14 26.04 23.4 25.62 24.89 23.45 24.47 21.2 24.14 19.44 22.76 18.16 21.1 17.87L21.13 15.13C22.02 14.87 22.65 14.1 22.76 13.21L28.75 12.12C29.14 12.75 29.88 13.11 30.64 12.97 31.64 12.79 32.29 11.83 32.11 10.83 31.94 9.9 31.09 9.27 30.17 9.34L28.46 5.76C29.38 5.05 29.88 3.88 29.66 2.66 29.34 0.93 27.68-0.22 25.94 0.1 24.2 0.42 23.06 2.08 23.38 3.82 23.7 5.56 25.36 6.7 27.1 6.38 27.16 6.37 27.21 6.35 27.26 6.33L28.97 9.9C28.74 10.15 28.57 10.46 28.51 10.81L22.52 11.9C22.07 11.03 21.1 10.51 20.08 10.69 18.84 10.92 18.02 12.11 18.25 13.35 18.41 14.21 19.03 14.85 19.81 15.1L19.78 17.84C19.78 17.84 19.68 17.85 19.63 17.86 17.37 18.28 15.88 20.45 16.3 22.7 16.37 23.09 16.5 23.46 16.67 23.8L12.02 27.15C11.31 26.51 10.32 26.18 9.31 26.37 7.58 26.69 6.43 28.35 6.75 30.09 7.07 31.83 8.73 32.97 10.47 32.65 11.75 32.41 12.71 31.44 12.99 30.25L21.47 30.44C21.55 30.65 21.66 30.84 21.8 31L19.37 35.52C18.91 35.38 18.41 35.34 17.9 35.43 16.17 35.75 15.02 37.41 15.34 39.15 15.66 40.89 17.32 42.03 19.06 41.71 20.8 41.39 21.94 39.73 21.62 37.99 21.48 37.24 21.08 36.61 20.54 36.15L22.97 31.62C23.15 31.64 23.34 31.65 23.53 31.62 24.53 31.44 25.18 30.48 25 29.48 24.82 28.48 23.86 27.83 22.86 28.01 22.23 28.13 21.73 28.56 21.5 29.11L13.02 28.92C12.97 28.68 12.9 28.45 12.8 28.23L17.45 24.88ZM8.51 22.3C8.8 23.15 9.67 23.69 10.58 23.52 11.58 23.34 12.23 22.38 12.05 21.38 11.92 20.69 11.42 20.17 10.79 19.97L10.64 17.84C12.64 17.35 13.94 15.38 13.56 13.33 13.42 12.58 13.07 11.92 12.59 11.4L15.02 8.26C15.4 8.4 15.82 8.46 16.25 8.38 17.49 8.15 18.31 6.96 18.08 5.72 17.85 4.48 16.66 3.66 15.42 3.89 14.18 4.12 13.36 5.31 13.59 6.55 13.65 6.89 13.79 7.19 13.98 7.45L11.55 10.59C10.8 10.19 9.91 10.03 9 10.19 6.87 10.58 5.47 12.63 5.86 14.75 6.18 16.5 7.63 17.76 9.32 17.93L9.47 20.05C9.07 20.24 8.75 20.56 8.57 20.96L4.5 20.76C4.21 19.6 3.07 18.85 1.88 19.07 0.69 19.29-0.19 20.51 0.04 21.75 0.27 22.99 1.46 23.81 2.7 23.58 3.53 23.43 4.16 22.84 4.43 22.1L8.51 22.3Z" fill="url(#linear-gradient)"/><g><path d="M61.87 18.94C61.37 18.26 60.71 17.76 59.9 17.44 59.09 17.13 58.3 16.97 57.52 16.97 56.53 16.97 55.63 17.15 54.82 17.51 54.01 17.87 53.31 18.36 52.73 18.99 52.14 19.62 51.69 20.36 51.38 21.2 51.06 22.05 50.91 22.96 50.91 23.95 50.91 24.99 51.06 25.95 51.37 26.81 51.68 27.67 52.11 28.42 52.68 29.04 53.25 29.66 53.93 30.14 54.72 30.48 55.51 30.82 56.4 30.99 57.39 30.99 58.38 30.99 59.32 30.79 60.12 30.38 60.91 29.97 61.55 29.44 62.04 28.77L64.77 30.69C63.92 31.75 62.89 32.58 61.66 33.16 60.44 33.74 59 34.04 57.37 34.04 55.88 34.04 54.5 33.79 53.25 33.3 52 32.8 50.92 32.11 50.02 31.22 49.12 30.33 48.42 29.27 47.91 28.03 47.4 26.79 47.15 25.43 47.15 23.94 47.15 22.45 47.42 21.03 47.95 19.8 48.48 18.57 49.21 17.52 50.14 16.65 51.07 15.79 52.16 15.12 53.42 14.65 54.68 14.18 56.05 13.95 57.52 13.95 58.13 13.95 58.77 14.01 59.44 14.13 60.11 14.25 60.74 14.43 61.36 14.67 61.97 14.91 62.55 15.21 63.09 15.57 63.63 15.93 64.09 16.36 64.47 16.87L61.88 18.92Z"/><path d="M65.25 14.46 77.91 14.46 77.91 17.43 68.65 17.43 68.65 22.29 77.43 22.29 77.43 25.15 68.65 25.15 68.65 30.55 78.4 30.55 78.4 33.57 65.25 33.57 65.25 14.46Z"/><path d="M80.39 30.6 87.76 23.36C88.35 22.78 88.83 22.2 89.18 21.62 89.53 21.04 89.71 20.36 89.71 19.61 89.71 18.71 89.42 17.99 88.83 17.46 88.25 16.93 87.52 16.66 86.66 16.66 85.74 16.66 85 16.97 84.45 17.59 83.89 18.21 83.55 18.99 83.42 19.93L80.26 19.44C80.35 18.65 80.57 17.92 80.93 17.25 81.29 16.58 81.75 16.01 82.31 15.52 82.87 15.03 83.52 14.65 84.27 14.37 85.02 14.09 85.83 13.95 86.71 13.95 87.54 13.95 88.33 14.07 89.1 14.3 89.86 14.53 90.54 14.89 91.14 15.37 91.73 15.85 92.21 16.43 92.56 17.12 92.91 17.81 93.09 18.62 93.09 19.54 93.09 20.15 93.01 20.72 92.85 21.25 92.69 21.78 92.47 22.28 92.19 22.75 91.91 23.22 91.59 23.66 91.22 24.09 90.85 24.52 90.45 24.92 90.02 25.32L84.51 30.58 93.12 30.58 93.12 33.55 80.4 33.55 80.4 30.58Z"/><path d="M95.49 14.46 100 14.46 108.88 28.77 108.93 28.77 108.93 14.46 112.33 14.46 112.33 33.58 108.01 33.58 98.94 18.81 98.89 18.81 98.89 33.58 95.49 33.58 95.49 14.46Z"/><path d="M114.93 14.46 120.25 14.46 125.22 28.04 125.3 28.04 130.21 14.46 135.56 14.46 135.56 33.58 132.18 33.58 132.18 18.22 132.13 18.22 126.33 33.58 123.95 33.58 118.23 18.22 118.18 18.22 118.18 33.58 114.94 33.58 114.94 14.46Z"/><path d="M138.15 14.46 144.93 14.46C146.17 14.46 147.42 14.62 148.68 14.95 149.94 15.27 151.07 15.81 152.08 16.56 153.09 17.31 153.91 18.29 154.54 19.5 155.17 20.71 155.48 22.22 155.48 24.02 155.48 25.69 155.17 27.13 154.54 28.34 153.91 29.55 153.09 30.54 152.08 31.31 151.07 32.08 149.94 32.66 148.68 33.02 147.42 33.39 146.17 33.57 144.93 33.57L138.15 33.57 138.15 14.46ZM144.38 30.6C145.26 30.6 146.14 30.5 147.03 30.29 147.92 30.08 148.71 29.73 149.42 29.24 150.13 28.75 150.71 28.07 151.16 27.23 151.61 26.38 151.83 25.31 151.83 24.02 151.83 22.65 151.6 21.54 151.16 20.67 150.71 19.81 150.13 19.13 149.42 18.64 148.71 18.15 147.91 17.82 147.03 17.64 146.15 17.46 145.27 17.37 144.38 17.37L141.55 17.37 141.55 30.6 144.38 30.6Z"/></g></svg>