<?xml version="1.0" encoding="UTF-8"?>
<svg id="Layer_1" xmlns="http://www.w3.org/2000/svg" version="1.1" xmlns:xlink="http://www.w3.org/1999/xlink" viewBox="0 0 206.6 52.4">
  <!-- Generator: Adobe Illustrator 30.3.0, SVG Export Plug-In . SVG Version: 2.1.3 Build 182)  -->
  <defs>
    <style>
      .st0 {
        fill: url(#linear-gradient);
      }
    </style>
    <linearGradient id="linear-gradient" x1="11.2" y1="80" x2="27.3" y2="80" gradientTransform="translate(0 105.9) scale(1 -1)" gradientUnits="userSpaceOnUse">
      <stop offset=".1" stop-color="#1550a1"/>
      <stop offset=".6" stop-color="#1ebde2"/>
    </linearGradient>
  </defs>
  <path class="st0" d="M11.2,37.3V14.6c0-1.7,2.2-2.6,3.4-1.5l12.8,12.8-12.8,12.7c-1.2,1.3-3.4.4-3.4-1.3Z"/>
  <path d="M38.5,24.2L15,.7C14.3,0,13.3-.1,12.4.1c-.9.3-1.5,1.2-1.5,2.2v3.1l2.9,2.9V3.8l22.2,22.1-22,22v-4.5l-2.9,2.9v3.1c0,.9.6,1.7,1.5,2.2.3.1.6.1.9.1.6,0,1.2-.3,1.6-.7l23.6-23.6c.9-.7.9-2.2-.1-3.2Z"/>
  <path d="M8.3,42.7l-5.4,5.2V3.8l5.4,5.4v-4.2L3.9.6C3.4,0,2.3-.1,1.5.1.6.6,0,1.5,0,2.3v47c0,.9.6,1.7,1.5,2.2.3.1.6.1.9.1.6,0,1.2-.3,1.6-.7l4.4-4.4v-3.9Z"/>
  <path d="M110,50.4v-6.6h2.9c.7,0,1.2.1,1.6.6.4.3.6.9.6,1.5s-.1,1.2-.6,1.5c-.4.4-.9.6-1.6.6h-1.7v2.5h-1.2ZM111,46.9h1.7c.4,0,.7-.1.9-.3.1-.1.3-.4.3-.7s-.1-.6-.3-.7c-.1-.1-.4-.3-.9-.3h-1.7v2Z"/>
  <path d="M117.7,50.4c-.4,0-.9-.1-1.3-.3-.3-.1-.6-.4-.9-.9-.1-.4-.3-.9-.3-1.3s.1-1,.3-1.3c.1-.4.4-.7.9-.9.4-.1.7-.3,1.3-.3s.9.1,1.3.3c.3.1.6.4.9.9.3.4.3.9.3,1.3s-.1,1-.3,1.3c-.1.4-.4.7-.9.9-.4.3-.9.3-1.3.3ZM117.7,49.5c.4,0,.7-.1,1-.4.3-.3.3-.7.3-1.2s-.1-.9-.3-1.2c-.3-.3-.6-.4-1-.4s-.7.1-1,.4c-.3.3-.3.7-.3,1.2s.1.9.3,1.2c.3.3.6.4,1,.4Z"/>
  <path d="M122,50.4l-1.5-4.8h1l1,3.5,1.2-3.5h1l1.2,3.5,1-3.5h1l-1.5,4.8h-1.2l-1.2-3.5-1.2,3.5h-1Z"/>
  <path d="M130.9,50.4c-.4,0-.9-.1-1.3-.3-.4-.1-.6-.4-.9-.9-.1-.4-.3-.9-.3-1.3s.1-1,.3-1.3c.1-.4.4-.7.9-.9.4-.1.7-.3,1.3-.3s.9.1,1.2.3c.3.1.6.4.7.9.1.3.3.7.3,1.3v.4h-3.6c0,.4.1.7.4,1,.3.3.6.3,1,.3s.6,0,.7-.1c.1-.1.3-.3.4-.6h1c-.1.4-.3.9-.7,1.2-.4.1-1,.3-1.5.3ZM129.4,47.3h2.6c0-.3-.1-.6-.4-.9-.1-.1-.4-.3-.9-.3s-.6.1-.9.3c-.1.3-.3.6-.4.9Z"/>
  <path d="M134.2,50.4v-3.8h-.6v-1.2h1.2v.9h.3c.1-.3.3-.6.6-.7s.6-.3.9-.3h.4v.9h-.4c-.4,0-.7.1-1,.4-.3.3-.3.6-.3,1v2.5h-1v.3Z"/>
  <path d="M138.3,44.8c-.1,0-.3,0-.4-.1-.1-.1-.1-.3-.1-.4s0-.3.1-.4c.1-.1.3-.1.4-.1s.3,0,.4.1c.1.1.1.3.1.4s0,.3-.1.4c-.1.1-.3.1-.4.1ZM137.9,50.4v-4.8h1v4.8h-1Z"/>
  <path d="M140.3,50.4v-3.8h-.6v-1.2h1.2v.7h.3c.1-.3.4-.4.7-.6.3-.1.6-.3,1-.3s1.2.1,1.5.6c.3.3.6.9.6,1.5v2.9h-1v-2.8c0-.4-.1-.7-.3-.9-.1-.1-.4-.3-.9-.3s-.7.1-.9.3c-.1.1-.3.6-.3.9v2.8h-1.3Z"/>
  <path d="M147.9,52.4c-.7,0-1.2-.1-1.6-.4-.4-.3-.7-.7-.7-1.2h1.2c.1.4.6.7,1.2.7s.7-.1,1-.3c.3-.1.3-.6.3-.9v-.9c-.1.3-.3.4-.6.6-.3.1-.6.1-.9.1-.4,0-.9-.1-1.2-.3-.3-.1-.6-.4-.7-.9-.1-.4-.3-.9-.3-1.3,0-.7.1-1.3.6-1.7.4-.4.9-.7,1.6-.7s.7.1,1,.3c.3.1.4.3.6.6h.3v-.7h1v1.2h-.6v3.6c0,.7-.1,1.2-.6,1.6-.4.4-.7.6-1.6.6ZM148.1,49.4c.4,0,.7-.1.9-.3.3-.3.3-.6.3-.9v-.4c0-.4-.1-.7-.3-.9-.3-.3-.6-.3-.9-.3-.4,0-.7.1-1,.4-.3.3-.3.6-.3,1.2s.1.9.3,1.2c.3-.1.6,0,1,0Z"/>
  <path d="M155.5,50.4l-1.7-6.6h1.2l1.3,5,1.5-5h1l1.5,5,1.3-5h1.2l-1.7,6.6h-1l-1.5-5-1.5,5h-1.5Z"/>
  <path d="M163.2,50.4v-6.7h1v2.6c.1-.3.3-.4.6-.6.3-.1.6-.1.9-.1.6,0,1,.1,1.3.6.3.4.6.9.6,1.5v2.9h-1v-2.8c0-.4-.1-.7-.3-.9-.1-.1-.4-.3-.9-.3s-.7.1-.9.3c-.1.1-.3.6-.3.9v2.8h-1Z"/>
  <path d="M170.2,50.4c-.6,0-.9-.1-1.3-.4-.3-.3-.4-.6-.4-1s.1-.9.4-1c.3-.3.7-.4,1.3-.4h1.5c0-.7-.3-1.2-1-1.2s-.9.3-1,.7h-1c.1-.4.3-.9.7-1.2.4-.3.9-.4,1.5-.4s1.2.1,1.5.4c.3.3.6.7.6,1.5v1.9h.4v1.2h-1v-.9h-.3c-.1.3-.4.4-.6.6-.4.3-.7.3-1.2.3ZM170.4,49.5c.3,0,.4,0,.7-.1.1-.1.4-.3.4-.4.1-.1.1-.4.1-.6h0c0-.1-1.5-.1-1.5-.1-.6,0-.9.3-.9.7s.1.4.3.4c.3.1.4.1.7.1Z"/>
  <path d="M175.5,50.4c-.3,0-.4-.1-.7-.3-.1-.1-.3-.4-.3-.7v-3.1h-.9v-.9h.9v-1.5h1v1.5h1.2v.9h-1.2v3.2h1.3v.9h-1.3Z"/>
  <path d="M177.3,46.4v-.6h.3c.1,0,.3,0,.3-.1s.1-.1.1-.3v-.3h-.6v-1.3h1.2v1.6c0,.3-.1.6-.3.7-.1.1-.4.3-.7.3h-.3Z"/>
  <path d="M181.3,50.4c-.7,0-1.2-.1-1.6-.4-.4-.3-.6-.7-.6-1.2h1c0,.3.1.4.3.6.1.1.4.1.9.1s1-.1,1-.6,0-.3-.1-.4c-.1-.1-.3-.1-.4-.1h-1c-.9-.3-1.3-.7-1.3-1.5s.1-.9.4-1c.3-.1.9-.4,1.5-.4s1,.1,1.5.4c.3.3.6.7.6,1.2h-1.2c0-.3-.1-.4-.3-.6-.1-.1-.4-.1-.7-.1s-.4,0-.6.1c-.1.1-.3.3-.3.4s0,.3.1.3.3.1.4.1h1c.4.3.9.4,1,.6.1.3.3.6.3.9,0,.4-.1.9-.4,1.2-.4.3-.9.4-1.5.4Z"/>
  <path d="M192.2,50.4h-1.2l-3.5-5v5h-1v-6.6h1.2l3.6,5v-5h1v6.6h-.1Z"/>
  <path d="M195.6,50.4c-.4,0-.9-.1-1.3-.3-.4-.1-.6-.4-.9-.9-.1-.4-.3-.9-.3-1.3s.1-1,.3-1.3c.1-.4.4-.7.9-.9.4-.1.7-.3,1.3-.3s.9.1,1.2.3c.3.1.6.4.7.9.1.3.3.7.3,1.3v.4h-3.6c0,.4.1.7.4,1,.3.3.6.3,1,.3s.6,0,.7-.1c.1-.1.3-.3.4-.6h1c-.1.4-.3.9-.7,1.2-.4.1-.9.3-1.5.3ZM194.3,47.3h2.6c0-.3-.1-.6-.4-.9-.1-.1-.4-.3-.9-.3s-.6.1-.9.3c-.3.3-.4.6-.4.9Z"/>
  <path d="M198,50.4l1.7-2.5-1.7-2.3h1.2l1.2,1.6,1.2-1.6h1.2l-1.7,2.3,1.7,2.5h-1.2l-1.3-1.7-1.3,1.7h-.9Z"/>
  <path d="M204.9,50.4c-.3,0-.4-.1-.7-.3-.1-.1-.3-.4-.3-.7v-3.1h-.9v-.9h.9v-1.5h1v1.5h1.2v.9h-1.2v3.2h1.3v.9h-1.3Z"/>
  <path d="M49,38.3V12.8h9.6c2.8,0,5.1.6,7.1,1.5,2,.9,3.5,2.5,4.7,4.4,1,1.9,1.6,4.2,1.6,6.8s-.6,5-1.6,6.8c-1.2,1.9-2.6,3.3-4.7,4.4-2,1-4.4,1.6-7.1,1.6h-9.6ZM53.3,34.5h5.2c2.9,0,5.1-.9,6.7-2.5,1.6-1.6,2.3-3.8,2.3-6.6s-.7-5.1-2.3-6.7c-1.6-1.6-3.8-2.5-6.7-2.5h-5.2v18.2Z"/>
  <path d="M78.3,17c-.7,0-1.3-.3-1.7-.7-.4-.4-.7-1-.7-1.7s.3-1.3.7-1.7c.4-.4,1-.7,1.7-.7s1.3.3,1.7.7c.4.4.7,1,.7,1.7s-.3,1.3-.7,1.7c-.4.4-1,.7-1.7.7ZM76.2,38.3v-18.9h4.2v18.9h-4.2Z"/>
  <path d="M93.8,46.2c-2.8,0-5-.6-6.6-1.6-1.7-1.2-2.8-2.6-3.1-4.7h4.5c.6,1.9,2.2,2.8,5,2.8s3.2-.4,4.2-1.3c1-.9,1.5-2,1.5-3.6v-2.8h-.1c-.6,1-1.3,1.9-2.3,2.5-1,.6-2.3.9-3.8.9s-3.4-.4-4.7-1.2c-1.3-.7-2.3-1.9-3.1-3.3-.7-1.5-1-3.2-1-5.1,0-2.9.9-5.2,2.5-7,1.6-1.7,3.8-2.6,6.7-2.6s2.9.3,3.9.9c1.2.6,2,1.5,2.6,2.5h1.3v-3.1h4.5v4.4h-2.2v14.1c0,2.6-.9,4.7-2.5,6.1-1.6,1.5-4.4,2.2-7.4,2.2ZM94.1,34.5c1.6,0,2.8-.4,3.8-1.3.9-.9,1.5-2,1.5-3.6v-1.9c0-1.5-.4-2.6-1.5-3.6-.9-.9-2.2-1.3-3.8-1.3s-3.1.6-4.1,1.6c-1,1-1.5,2.5-1.5,4.4s.4,3.3,1.5,4.4c1,1,2.3,1.5,4.1,1.5Z"/>
  <path d="M111.6,17c-.7,0-1.3-.3-1.7-.7-.4-.4-.7-1-.7-1.7s.3-1.3.7-1.7c.4-.4,1-.7,1.7-.7s1.3.3,1.7.7c.4.4.7,1,.7,1.7s-.3,1.3-.7,1.7c-.4.4-1,.7-1.7.7ZM109.4,38.3v-18.9h4.2v18.9h-4.2Z"/>
  <path d="M119.2,38.3V12.8h9.6c2.8,0,5.1.6,7.1,1.5,2,.9,3.5,2.5,4.7,4.4,1,1.9,1.6,4.2,1.6,6.8s-.6,5-1.6,6.8c-1.2,1.9-2.6,3.3-4.7,4.4-2,1-4.4,1.6-7.1,1.6h-9.6ZM123.6,34.5h5.2c2.9,0,5.1-.9,6.7-2.5,1.6-1.6,2.3-3.8,2.3-6.6s-.7-5.1-2.3-6.7c-1.6-1.6-3.8-2.5-6.7-2.5h-5.2v18.2Z"/>
  <path d="M147.6,38.3v-14.6h-2.2v-4.4h4.5v3.6h1.3c.4-1.3,1.3-2.2,2.5-2.8,1.2-.6,2.3-1,3.8-1h1.6v3.6h-1.7c-1.7,0-3.2.6-4.1,1.6-.9,1-1.3,2.5-1.3,4.1v9.8h-4.4Z"/>
  <path d="M169.9,38.6c-2.5,0-4.5-.7-5.8-2-1.5-1.3-2-3.2-2-5.5v-11.6h4.2v10.8c0,1.6.4,2.8,1.2,3.5.7.7,2,1.2,3.5,1.2s2.9-.4,3.8-1.3c.9-.9,1.3-2,1.3-3.5v-10.6h4.2v14.6h2.2v4.4h-4.5v-3.1h-1.3c-.7,1.2-1.6,1.9-2.8,2.5s-2.3.9-3.9.9Z"/>
  <path d="M197.6,38.6c-1.6,0-2.9-.3-3.9-.9-1-.6-2-1.5-2.6-2.5h-1.3v3.1h-4.5v-4.4h2.2V11.8h4.2v10.3h.1c.6-1,1.3-1.9,2.5-2.3,1-.6,2.3-.9,3.8-.9s3.4.4,4.7,1.2c1.3.7,2.3,1.9,2.9,3.3.7,1.5,1,3.2,1,5.2s-.3,3.8-1,5.2c-.7,1.5-1.7,2.6-3.1,3.3-1.3.7-3.1,1.3-5,1.3ZM196.9,34.9c1.7,0,3.1-.6,4.1-1.6.9-1.2,1.5-2.6,1.5-4.5s-.4-3.3-1.5-4.5c-.9-1-2.3-1.6-4.1-1.6s-2.8.4-3.8,1.3c-.9.9-1.5,2.2-1.5,3.6v2.3c0,1.6.4,2.8,1.5,3.6.9.9,2.2,1.3,3.8,1.3Z"/>
</svg>