<svg width="639.655" height="110" viewBox="0 0 639.655 110" xmlns="http://www.w3.org/2000/svg" xmlns:xlink="http://www.w3.org/1999/xlink" overflow="hidden"><path d="M156.5 29.3 156.5 29.3 155 29.3C154.7 29.3 154.4 29 154.4 28.7L154.4 1.9C154.4 1.6 154.4 1.3 154.7 1.2 155 1 155.7 1 156.2 1L158 1C160.3 1 162.2 2.9 162.2 5.2L162.2 15.4 168.6 8.9C169.9 7.7 174.5 3 174.5 3 175.6 1.8 177.2 1 179.1 1L180.2 1C181 1 181.6 1.2 182 1.8 182.1 2 182.4 2.3 182.5 2.7 182.6 3.2 182.6 3.7 182.6 3.7 182.6 5 182.1 6.2 181.2 7.2L174.2 14.3C172.3 16.1 173.9 18 173.9 18 174.7 18.8 176.3 19.9 177.7 20.4L179.4 21.1C181.4 22 182.6 23.9 182.6 25.9L182.6 28.8C182.6 29.2 182.4 29.5 182 29.5L180.8 29.5C179.2 29.5 177.3 28.6 177.3 28.6L169.4 25.3C168.6 24.9 167.7 24.6 166.7 24.5 166.4 24.4 166.1 24.4 165.8 24.4L165.2 24.4C164.3 24.5 163.5 24.9 162.9 25.5 161.9 26.5 161.1 27.3 161.1 27.3 160 28.4 158.4 29.3 156.5 29.3ZM123.1 25.9C123.3 26 123.5 26.3 123.9 26.6L123.9 28.6C123.9 29.1 123.6 29.4 123.2 29.4L117 29.4C116 29.4 115 29.1 114.1 28.4L104.7 21C104.1 20.5 103.7 19.5 103.7 18.5L103.7 15.5C103.7 15 103.9 14.7 104.2 14.7 104.5 14.7 105 14.9 105.2 15 105.7 15.1 106.3 15.3 106.3 15.3 107.2 15.6 108.2 15.8 109.1 15.8 111.1 15.8 112.6 15 113.1 13.6 113.5 12.3 112.3 9.4 108 8.3 104.7 7.5 101.8 8.1 100.9 9.7 100.9 9.7 100.8 9.9 100.7 10.2 100.6 10.5 100.6 10.8 100.6 11L100.6 22.6C100.6 24.4 100.3 26 99.2 27.4 98.6 28.2 97.8 28.9 96.8 29.2 96.1 29.4 95.4 29.5 94.8 29.5 94.3 29.5 93.6 29.5 93.2 29.3 92.9 29.2 92.9 28.9 92.9 28.6L92.9 26.7 92.9 25.2 92.9 20.9 92.9 1.7C92.9 1.4 93.2 1.1 93.5 1.1L104.9 1.1C106.8 1.1 108.7 1.5 110.6 2.1 112.6 2.7 114.3 3.6 115.9 4.7 117.5 5.8 118.7 7.1 119.7 8.6 120.7 10.1 121.2 11.7 121.2 13.4 121.2 15.2 120.6 16.6 119.6 17.8 117.9 19.6 116.1 20.4 115.6 20.7 116 21.1 117.2 22 118.7 23.2 121.6 25.5 123.1 25.9 123.1 25.9ZM85.7 22C87.1 22 88.2 22.4 89 23.4 89.8 24.2 90.2 25.2 90.2 26.6L90.2 29C90.2 29.3 89.9 29.6 89.6 29.6L77.9 29.6C75.7 29.6 73.6 29.2 71.7 28.3 69.7 27.4 68 26.3 66.6 24.8 65.2 23.3 64 21.6 63.2 19.7 62.3 17.7 61.9 15.7 61.9 13.5L61.9 1.8C61.9 1.5 62.2 1.2 62.5 1.2L74.2 1.2C76.3 1.2 78.4 1.6 80.3 2.5 82.2 3.3 83.9 4.5 85.4 5.9 86.9 7.3 88 8.9 88.9 10.6 89.8 12.3 90.2 13.9 90.2 15.5 90.2 16.5 90 17.2 89.5 17.9 89 18.6 88 19 86.6 19L78.6 19C75.2 19 73.5 16.5 73.2 15.8 72.8 15.1 72.7 14.5 72.7 13.6 72.7 13.1 73 12.9 73.5 12.9L82.1 12.9C81.1 11.7 79.8 10.5 78.5 9.7 77.6 9.2 76.7 8.8 75.8 8.6 75.3 8.5 74.8 8.4 74.2 8.4 73.6 8.4 73.1 8.5 72.6 8.6 72.3 8.6 71.8 8.8 71.4 9 71 9.2 70.6 9.5 70.5 9.6 69.6 10.4 69.2 11.5 69.2 13 69.2 14.2 69.4 15.3 69.8 16.4 70.3 17.5 70.8 18.5 71.6 19.3 72 19.7 73.3 20.9 74.2 21.3 75.3 21.7 76.3 22 77.5 22ZM59.2 5.2C59.2 5.4 59.2 28.5 59.2 28.5 59.2 28.9 58.9 29.3 58.4 29.3L57.5 29.3 55.7 29.3C53.4 29.3 51.5 27.4 51.5 25.1L51.5 20.1C51.5 18 49.7 16.2 47.6 16.2 43.6 16.2 40.8 19.6 38.2 21.9 35 24.7 32.6 27.4 29.6 27.4 26.6 27.4 24.2 24.7 21 21.9 18.4 19.6 15.6 16.2 11.6 16.2 9.5 16.2 7.7 18 7.7 20.2L7.7 28.5C7.7 28.9 7.4 29.3 6.9 29.3L5.8 29.3 4.2 29.3C1.9 29.3 0 27.4 0 25.1L0 1.8C0 1.4 0.4 1 0.8 0.9L6.1 0.9C8 0.9 9.8 1.7 11 2.9 11.1 3 17.6 9.1 17.6 9.1 20.7 12.2 24.9 13.9 29.6 13.9 34.1 13.9 38.2 12.3 41.2 9.5L50 1.2C50.2 1.1 50.4 1 50.6 1L55 1C57.3 1 59.2 2.9 59.2 5.2ZM151.3 17.5C151.7 17.5 151.9 17.7 151.6 18.3 151.5 19.9 151.1 21.5 150.5 22.9 149.9 24.4 149.1 25.6 148 26.6 147 27.6 145.7 28.4 144.3 29 142.8 29.6 141.3 29.9 139.6 29.9 137.5 29.9 135.5 29.4 133.5 28.5 131.6 27.6 129.8 26.4 128.3 24.9 126.8 23.3 125.6 21.6 124.7 19.6 123.8 17.6 123.4 15.5 123.4 13.3L123.4 1.8C123.4 1.3 123.7 1 124.1 1L135.6 1C137.7 1 139.6 1.4 141.5 2.2 143.4 3 145.1 4.2 146.7 5.6 146.9 5.8 147 6 147.1 6.1 147.1 6.3 147.1 6.4 146.9 6.6L144 9.5C143.3 10.2 142.6 10.6 141.9 10.6 141.2 10.6 140.6 10.3 140 9.9 138.6 8.8 137.2 8.3 135.7 8.3 134.4 8.3 133.3 8.7 132.5 9.6 131.6 10.5 131.2 11.6 131.2 13 131.2 14.1 131.5 15.2 132 16.3 132.5 17.4 133.2 18.4 134 19.3 134.8 20.2 135.8 20.9 136.8 21.5 137.8 22.1 138.8 22.4 139.8 22.4 140.9 22.4 141.7 22.1 142.4 21.6 143.1 21.1 143.6 20.4 143.9 19.5 144.4 18.2 145.4 17.5 147 17.5Z" fill="#EB3C96" transform="matrix(3.44828 0 0 3.44828 5 1.89655)"/></svg>